<svg width="21" height="15" viewBox="0 0 21 15" fill="none" xmlns="http://www.w3.org/2000/svg">
<path fill-rule="evenodd" clip-rule="evenodd" d="M19.5 0.159058C20.1 0.159058 20.5 0.559058 20.5 1.15906C20.5 1.75906 20.1 2.15906 19.5 2.15906H1.5C0.9 2.15906 0.5 1.75906 0.5 1.15906C0.5 0.559058 0.9 0.159058 1.5 0.159058H19.5ZM1.5 6.15906H15.5C16.1 6.15906 16.5 5.75906 16.5 5.15906C16.5 4.55906 16.1 4.15906 15.5 4.15906H1.5C0.9 4.15906 0.5 4.55906 0.5 5.15906C0.5 5.75906 0.9 6.15906 1.5 6.15906ZM20.5 9.15906C20.5 8.55906 20.1 8.15906 19.5 8.15906H1.5C0.9 8.15906 0.5 8.55906 0.5 9.15906C0.5 9.75906 0.9 10.1591 1.5 10.1591H19.5C20.1 10.1591 20.5 9.75906 20.5 9.15906ZM15.5 12.1591C16.1 12.1591 16.5 12.5591 16.5 13.1591C16.5 13.7591 16.1 14.1591 15.5 14.1591H1.5C0.9 14.1591 0.5 13.7591 0.5 13.1591C0.5 12.5591 0.9 12.1591 1.5 12.1591H15.5Z" fill="#1076ED"/>
</svg>
