<svg width="25" height="25" viewBox="0 0 25 25" fill="none" xmlns="http://www.w3.org/2000/svg">
<path d="M17.1688 15.1327H16.0847L15.7005 14.7622C17.0453 13.1979 17.8549 11.167 17.8549 8.95773C17.8549 4.03148 13.8617 0.0383453 8.9355 0.0383453C4.00925 0.0383453 0.0161133 4.03148 0.0161133 8.95773C0.0161133 13.884 4.00925 17.8771 8.9355 17.8771C11.1448 17.8771 13.1756 17.0675 14.74 15.7227L15.1105 16.107V17.191L21.9715 24.0383L24.0161 21.9937L17.1688 15.1327ZM8.9355 15.1327C5.51869 15.1327 2.76054 12.3745 2.76054 8.95773C2.76054 5.54092 5.51869 2.78277 8.9355 2.78277C12.3523 2.78277 15.1105 5.54092 15.1105 8.95773C15.1105 12.3745 12.3523 15.1327 8.9355 15.1327Z" fill="#046AF3"/>
</svg>
