<svg width="16" height="17" viewBox="0 0 16 17" fill="none" xmlns="http://www.w3.org/2000/svg">
<path fill-rule="evenodd" clip-rule="evenodd" d="M7.29289 0.677659C6.90237 1.06818 6.90237 1.70135 7.29289 2.09187L12.5858 7.38477H1C0.447715 7.38477 0 7.83248 0 8.38477C0 8.93705 0.447715 9.38477 1 9.38477H12.5858L7.29289 14.6777C6.90237 15.0682 6.90237 15.7013 7.29289 16.0919C7.68342 16.4824 8.31658 16.4824 8.70711 16.0919L15.7064 9.09259C15.7088 9.09017 15.7112 9.08775 15.7136 9.08531C15.8901 8.90555 15.9992 8.6594 16 8.38776C16 8.38677 16 8.38577 16 8.38477C16 8.38377 16 8.38277 16 8.38177C15.9996 8.24727 15.9727 8.11902 15.9241 8.00198C15.8764 7.88672 15.8063 7.77856 15.7136 7.68422C15.7112 7.68181 15.7089 7.67942 15.7065 7.67705M15.7065 7.67705L8.70711 0.677659C8.31658 0.287135 7.68342 0.287135 7.29289 0.677659" fill="#B5BBC9"/>
</svg>
