<svg width="40" height="40" viewBox="0 0 41 40" fill="none" xmlns="http://www.w3.org/2000/svg">
<rect x="0.0258789" width="40" height="40" rx="20" fill="#F5F5F8"/>
<mask id="mask0" mask-type="alpha" maskUnits="userSpaceOnUse" x="0" y="0" width="41" height="40">
<rect x="0.0258789" width="40" height="40" rx="20" fill="white"/>
</mask>
<g mask="url(#mask0)">
<path fill-rule="evenodd" clip-rule="evenodd" d="M34.5063 36.1271C33.3272 34.4214 31.5888 33.1816 29.5922 32.6223L24.9547 31.3232V27.99C26.9152 26.5173 28.2026 24.1999 28.2817 21.5784C28.5557 21.6992 28.8582 21.7676 29.1771 21.7676C30.4043 21.7676 31.3993 20.7727 31.3993 19.5454C31.3993 18.3181 30.4043 17.3232 29.1771 17.3232C28.8607 17.3232 28.5605 17.3902 28.2882 17.5093V16.8787C28.2882 12.2763 24.5572 8.54541 19.9548 8.54541H19.9547C15.3524 8.54541 11.6215 12.2763 11.6215 16.8787V17.5093C11.3491 17.3902 11.0488 17.3232 10.7326 17.3232C9.50528 17.3232 8.5104 18.3181 8.5104 19.5454C8.5104 20.7727 9.50528 21.7676 10.7326 21.7676C11.0514 21.7676 11.3538 21.6993 11.628 21.5784C11.707 24.1999 12.9944 26.5173 14.9547 27.99V31.3232L10.3174 32.6223C8.32073 33.1816 6.5824 34.4214 5.40329 36.1271L2.17706 40.7943V44.101H37.7326V40.7943L34.5063 36.1271Z" fill="#E9ADA1"/>
<path fill-rule="evenodd" clip-rule="evenodd" d="M19.9548 29.6565C18.9272 29.6565 17.9437 29.4694 17.0348 29.1293C18.3275 29.9551 19.8626 30.4343 21.5103 30.4343C22.7392 30.4343 23.9047 30.1662 24.9548 29.6888V27.99C23.562 29.0362 21.8309 29.6565 19.9548 29.6565Z" fill="#DB8B79"/>
<path d="M11.9114 19.8697C11.9397 19.7665 11.955 19.6577 11.955 19.5455C11.955 18.8705 11.4077 18.3232 10.7327 18.3232C10.564 18.3232 10.4032 18.3575 10.257 18.4192" stroke="#00004D" stroke-linecap="round" stroke-linejoin="round"/>
<path d="M27.9983 19.8697C27.97 19.7665 27.9549 19.6577 27.9549 19.5455C27.9549 18.8705 28.5021 18.3232 29.1771 18.3232C29.3458 18.3232 29.5066 18.3575 29.6529 18.4192" stroke="#00004D" stroke-linecap="round" stroke-linejoin="round"/>
<path fill-rule="evenodd" clip-rule="evenodd" d="M17.4055 13.6057C16.2492 15.5814 14.4987 17.1649 12.4009 18.1183C12.0302 17.7376 11.5241 17.4914 10.9604 17.4535L11.2523 15.6056V15.6055C11.4383 14.4276 11.8559 13.327 12.4565 12.3506C13.0112 11.4493 13.7229 10.656 14.5526 10.0057C14.8769 9.75153 15.2188 9.51864 15.577 9.31053C16.5828 8.72675 17.7132 8.33408 18.9187 8.18275C19.2834 8.13697 19.6548 8.1123 20.032 8.1123C21.6559 8.1123 23.1769 8.54997 24.487 9.31053C25.7618 10.0506 26.8362 11.0969 27.6076 12.3506C28.2082 13.327 28.6258 14.4276 28.8118 15.6056L29.1034 17.4513C28.5142 17.4912 27.989 17.7615 27.6144 18.1719C23.6659 17.8659 20.1033 16.1849 17.4055 13.6057ZM15.032 28.1096C13.0735 26.6366 11.7841 24.3215 11.7051 21.7008C11.431 21.8217 11.1286 21.8901 10.8098 21.8901C10.6233 21.8901 10.4435 21.8647 10.2705 21.8214L8.9209 30.3653H15.032V28.1096ZM29.2542 21.8901C28.9354 21.8901 28.6329 21.8218 28.3588 21.7009C28.2798 24.3216 26.9906 26.6367 25.032 28.1096V30.3652H31.1431L29.7936 21.8214C29.6206 21.8647 29.4407 21.8901 29.2542 21.8901Z" fill="#00004D"/>
<path fill-rule="evenodd" clip-rule="evenodd" d="M22.248 23.7786C22.248 25.0059 21.2531 26.0008 20.0258 26.0008C18.7985 26.0008 17.8036 25.0059 17.8036 23.7786H22.248Z" fill="white"/>
<path fill-rule="evenodd" clip-rule="evenodd" d="M24.5815 19.1111C24.5815 19.6019 24.1835 19.9999 23.6926 19.9999C23.2017 19.9999 22.8037 19.6019 22.8037 19.1111C22.8037 18.6202 23.2017 18.2222 23.6926 18.2222C24.1835 18.2222 24.5815 18.6202 24.5815 19.1111Z" fill="#00004D"/>
<path fill-rule="evenodd" clip-rule="evenodd" d="M17.2481 19.1111C17.2481 19.6019 16.8501 19.9999 16.3592 19.9999C15.8683 19.9999 15.4703 19.6019 15.4703 19.1111C15.4703 18.6202 15.8683 18.2222 16.3592 18.2222C16.8501 18.2222 17.2481 18.6202 17.2481 19.1111Z" fill="#00004D"/>
<path d="M20.0258 18.2222L21.1369 21.9999L19.5814 22.2222" stroke="#00004D" stroke-linecap="round" stroke-linejoin="round"/>
<path fill-rule="evenodd" clip-rule="evenodd" d="M37.8037 40.0268L34.5774 35.3596C33.3984 33.654 31.6601 32.4141 29.6633 31.8548L25.0259 30.5557C25.0259 33.3171 22.7874 35.5557 20.0259 35.5557C17.2645 35.5557 15.0259 33.3171 15.0259 30.5557L10.3885 31.8548C8.39184 32.4141 6.6535 33.654 5.47439 35.3596L2.24817 40.0268V43.3334H37.8037V40.0268Z" fill="#2384F5"/>
</g>
</svg>
