<?xml version="1.0" encoding="UTF-8"?>
<svg xmlns="http://www.w3.org/2000/svg" xmlns:xlink="http://www.w3.org/1999/xlink" width="24pt" height="24pt" viewBox="0 0 24 24" version="1.1">
<g id="surface1">
<path style=" stroke:none;fill-rule:nonzero;fill:rgb(100%,100%,100%);fill-opacity:1;" d="M 6.5625 13.3125 C 6.253906 13.3125 6 13.058594 6 12.75 L 6 11.25 C 6 10.941406 6.253906 10.6875 6.5625 10.6875 L 17.4375 10.6875 C 17.746094 10.6875 18 10.941406 18 11.25 L 18 12.75 C 18 13.058594 17.746094 13.3125 17.4375 13.3125 Z M 22.5 3.75 L 22.5 20.25 C 22.5 21.492188 21.492188 22.5 20.25 22.5 L 3.75 22.5 C 2.507812 22.5 1.5 21.492188 1.5 20.25 L 1.5 3.75 C 1.5 2.507812 2.507812 1.5 3.75 1.5 L 20.25 1.5 C 21.492188 1.5 22.5 2.507812 22.5 3.75 Z M 20.25 19.96875 L 20.25 4.03125 C 20.25 3.875 20.125 3.75 19.96875 3.75 L 4.03125 3.75 C 3.875 3.75 3.75 3.875 3.75 4.03125 L 3.75 19.96875 C 3.75 20.125 3.875 20.25 4.03125 20.25 L 19.96875 20.25 C 20.125 20.25 20.25 20.125 20.25 19.96875 Z M 20.25 19.96875 "/>
</g>
</svg>
