<svg width="32" height="32" viewBox="0 0 32 32" fill="none" xmlns="http://www.w3.org/2000/svg">
    <rect width="32" height="32" fill="white"/>
    <circle cx="16" cy="16" r="16" fill="#878787"/>
    <path d="M15.7999 14.9C13.5299 14.31 12.7999 13.7 12.7999 12.75C12.7999 11.66 13.8099 10.9 15.4999 10.9C17.2799 10.9 17.9399 11.75 17.9999 13H20.2099C20.1399 11.28 19.0899 9.7 16.9999 9.19V7H13.9999V9.16C12.0599 9.58 10.4999 10.84 10.4999 12.77C10.4999 15.08 12.4099 16.23 15.1999 16.9C17.6999 17.5 18.1999 18.38 18.1999 19.31C18.1999 20 17.7099 21.1 15.4999 21.1C13.4399 21.1 12.6299 20.18 12.5199 19H10.3199C10.4399 21.19 12.0799 22.42 13.9999 22.83V25H16.9999V22.85C18.9499 22.48 20.4999 21.35 20.4999 19.3C20.4999 16.46 18.0699 15.49 15.7999 14.9Z" fill="#F7F7F7"/>
</svg>