<?xml version="1.0" encoding="UTF-8"?>
<svg xmlns="http://www.w3.org/2000/svg" xmlns:xlink="http://www.w3.org/1999/xlink" width="30pt" height="30pt" viewBox="0 0 24 24" version="1.1">
<g id="surface1">
<path style=" stroke:none;fill-rule:nonzero;fill:rgb(100%,100%,100%);fill-opacity:1;" d="M 7.199219 6.398438 L 16.800781 6.398438 C 17.238281 6.398438 17.601562 6.761719 17.601562 7.199219 L 17.601562 16.800781 C 17.601562 17.238281 17.238281 17.601562 16.800781 17.601562 L 12.800781 17.601562 C 12.359375 17.601562 12 17.960938 12 18.398438 C 12 18.839844 12.359375 19.199219 12.800781 19.199219 L 17.601562 19.199219 C 18.488281 19.199219 19.199219 18.480469 19.199219 17.601562 L 19.199219 6.398438 C 19.199219 5.519531 18.480469 4.800781 17.601562 4.800781 L 6.398438 4.800781 C 5.519531 4.800781 4.800781 5.519531 4.800781 6.398438 L 4.800781 11.199219 C 4.800781 11.640625 5.160156 12 5.601562 12 C 6.039062 12 6.398438 11.640625 6.398438 11.199219 L 6.398438 7.199219 C 6.398438 6.761719 6.761719 6.398438 7.199219 6.398438 Z M 10.398438 18.398438 C 10.398438 17.960938 10.039062 17.601562 9.601562 17.601562 L 7.527344 17.601562 L 14.832031 10.296875 C 15.144531 9.984375 15.144531 9.480469 14.832031 9.167969 C 14.519531 8.855469 14.015625 8.855469 13.703125 9.167969 L 6.398438 16.472656 L 6.398438 14.398438 C 6.398438 13.960938 6.039062 13.601562 5.601562 13.601562 C 5.160156 13.601562 4.800781 13.960938 4.800781 14.398438 L 4.800781 19.199219 L 9.601562 19.199219 C 10.039062 19.199219 10.398438 18.839844 10.398438 18.398438 Z M 10.398438 18.398438 "/>
</g>
</svg>
