<svg width="25" height="25" viewBox="0 0 25 25" fill="none" xmlns="http://www.w3.org/2000/svg">
<path opacity="0.3" d="M10.9 2.40454C11.4523 2.40454 11.9 2.85226 11.9 3.40454C11.9 3.95683 11.4523 4.40454 10.9 4.40454H6C4.89543 4.40454 4 5.29997 4 6.40454V18.4045C4 19.5091 4.89543 20.4045 6 20.4045H18C19.1046 20.4045 20 19.5091 20 18.4045V16.4045C20 15.8523 20.4477 15.4045 21 15.4045C21.5523 15.4045 22 15.8523 22 16.4045V18.4045C22 20.6137 20.2091 22.4045 18 22.4045H6C3.79086 22.4045 2 20.6137 2 18.4045V6.40454C2 4.1954 3.79086 2.40454 6 2.40454H10.9Z" fill="#1076ED"/>
<path d="M7.00449 14.3021C7.00449 13.5394 6.84105 10.5293 9.21546 8.14132C10.8135 6.53416 13.2052 6.25541 16.0654 6.12829V2.24263C16.0654 1.59189 16.8374 1.24992 17.3193 1.68717L23.8275 7.59154C24.1533 7.88713 24.1559 8.39837 23.8331 8.69728L17.325 14.7245C16.8449 15.1692 16.0654 14.8287 16.0654 14.1743V10.3123C14.2494 10.3623 12.9558 10.4778 11.7805 10.8517C9.50898 11.5743 8.16106 14.6732 7.79757 15.6171C7.73488 15.7799 7.57963 15.8911 7.4052 15.8911C7.18138 15.8911 7.00001 15.7097 7.00072 15.4859C7.00201 15.0739 7.00449 14.6002 7.00449 14.3021Z" fill="#1076ED"/>
</svg>
