<svg width="101" height="16" viewBox="0 0 101 16" fill="currentColor" xmlns="http://www.w3.org/2000/svg">
    <g clip-path="url(#clip0)">
    <path fill-rule="evenodd" clip-rule="evenodd" d="M89.938 10.04H100.549C100.611 9.68824 100.641 9.33191 100.64 8.97499V7.91004H89.938C89.8495 8.25836 89.8029 8.61589 89.8006 8.97499C89.8037 9.33408 89.8495 9.69161 89.938 10.04ZM100.625 8.97499V7.91004H100.533C100.595 8.26181 100.626 8.61806 100.625 8.97499ZM87.709 10.04H89.938C89.8495 9.69161 89.8037 9.33408 89.8006 8.97499C89.8029 8.61589 89.8495 8.25836 89.938 7.91004H87.7243C87.6121 8.61581 87.6121 9.33431 87.7243 10.04H87.709ZM94.1212 4.71504C95.1777 4.71586 96.1983 5.09435 96.9915 5.77998H99.7548C99.0854 4.64079 98.0747 3.73226 96.8609 3.17842C95.6464 2.62457 94.2877 2.45242 92.9701 2.6854C91.6525 2.91838 90.4403 3.54515 89.4983 4.4802C88.5571 5.41525 87.9319 6.61309 87.709 7.91004H89.938C90.177 7.00175 90.7136 6.19618 91.4663 5.61847C92.2182 5.04078 93.1434 4.72324 94.0983 4.71504H94.1212ZM91.2587 12.17H88.4877C89.1594 13.3053 90.1709 14.21 91.3846 14.761C92.5976 15.3121 93.9541 15.4829 95.2701 15.2503C96.5854 15.0177 97.7961 14.3928 98.738 13.4607C99.68 12.5286 100.307 11.3343 100.533 10.04H98.335C98.151 10.7457 97.7861 11.3932 97.2739 11.9203C96.7625 12.4475 96.1212 12.8366 95.4121 13.0503C94.7037 13.2642 93.951 13.2955 93.2258 13.1414C92.5014 12.9872 91.8289 12.6527 91.2739 12.17H91.2587Z" fill="currentColor"/>
    <path fill-rule="evenodd" clip-rule="evenodd" d="M48.4647 7.90994H40.0677C39.9752 8.25757 39.929 8.61554 39.9303 8.97487C39.9294 9.33419 39.9756 9.69217 40.0677 10.0399H48.4647C48.5505 9.69119 48.5941 9.33367 48.5945 8.97487C48.5946 8.61607 48.551 8.25862 48.4647 7.90994ZM44.2662 4.71494C44.8353 4.71493 45.3987 4.82513 45.9243 5.03931C46.4499 5.25349 46.9275 5.5674 47.3295 5.96308C47.7314 6.35875 48.0501 6.82844 48.2672 7.34525C48.4843 7.86205 48.5955 8.41582 48.5945 8.97487C48.5941 9.33367 48.5505 9.69119 48.4647 10.0399H50.6785C50.7335 9.68752 50.7616 9.33142 50.7624 8.97487C50.8234 8.10097 50.701 7.22398 50.4025 6.3985C50.1041 5.57302 49.6361 4.81663 49.0276 4.17634C48.4191 3.53604 47.6831 3.02557 46.8653 2.67652C46.0476 2.32747 45.1655 2.14734 44.2738 2.14734C43.3822 2.14734 42.5002 2.32747 41.6824 2.67652C40.8646 3.02557 40.1286 3.53604 39.5201 4.17634C38.9116 4.81663 38.4436 5.57302 38.1452 6.3985C37.8467 7.22398 37.7243 8.10097 37.7853 8.97487C37.7848 9.33179 37.8154 9.68812 37.8769 10.0399H40.0907C39.9985 9.69217 39.9524 9.33419 39.9533 8.97487C39.9532 7.84895 40.4069 6.76885 41.2151 5.97058C42.0233 5.17232 43.1202 4.72088 44.2662 4.71494ZM44.2662 13.2349C43.3049 13.235 42.3709 12.9212 41.6109 12.3428C40.8509 11.7645 40.3081 10.9544 40.0677 10.0399H37.854C38.0788 11.3347 38.7042 12.5299 39.6451 13.463C40.5861 14.396 41.7968 15.0215 43.1125 15.2543C44.4282 15.4871 45.785 15.316 46.9981 14.764C48.2112 14.2121 49.2218 13.3063 49.8921 12.1699H47.1288C46.3389 12.8562 45.3207 13.235 44.2662 13.2349Z" fill="currentColor"/>
    <path fill-rule="evenodd" clip-rule="evenodd" d="M55.0984 8.97504C55.0984 8.13248 55.3528 7.30884 55.8292 6.60829C56.3056 5.90774 56.9828 5.36178 57.775 5.03935C58.5673 4.71692 59.4392 4.63254 60.2802 4.79692C61.1213 4.96129 61.8939 5.36698 62.5002 5.96275C63.1067 6.55852 63.5196 7.31764 63.6869 8.14396C63.8541 8.97039 63.7683 9.82689 63.4402 10.6053C63.112 11.3837 62.5562 12.049 61.8432 12.5171C61.1302 12.9852 60.2918 13.235 59.4343 13.235C58.2844 13.235 57.1815 12.7862 56.3684 11.9873C55.5553 11.1884 55.0984 10.1048 55.0984 8.97504ZM59.4343 2.585C58.1476 2.58352 56.8895 2.95703 55.8189 3.65827C54.7484 4.35952 53.9136 5.35702 53.4202 6.52452C52.9267 7.69201 52.7968 8.97699 53.0469 10.217C53.297 11.4571 53.9158 12.5963 54.825 13.4908C55.7344 14.3852 56.8932 14.9945 58.155 15.2417C59.4169 15.4889 60.725 15.3628 61.9138 14.8793C63.1027 14.396 64.1189 13.5769 64.8338 12.5259C65.5489 11.4749 65.9305 10.2392 65.9305 8.97504C65.9305 8.13398 65.7615 7.30126 65.4333 6.52452C65.105 5.74778 64.6238 5.04231 64.0175 4.44865C63.4112 3.85498 62.6915 3.38482 61.8997 3.06501C61.1079 2.74521 60.2598 2.58204 59.4037 2.585H59.4343Z" fill="currentColor"/>
    <path fill-rule="evenodd" clip-rule="evenodd" d="M68.0985 2.58494V8.97497C68.098 8.07587 68.2909 7.18688 68.6645 6.36615C69.0381 5.54543 69.584 4.8115 70.2663 4.21247V2.58494H68.0985ZM70.2663 8.97497C70.2663 8.13212 70.5208 7.3082 70.9976 6.60749C71.4744 5.90677 72.152 5.36075 72.9447 5.03855C73.7375 4.71634 74.6097 4.63241 75.451 4.7974C76.2922 4.96238 77.0648 5.36881 77.6708 5.96534C78.277 6.56186 78.6892 7.32165 78.8556 8.14847C79.022 8.97534 78.935 9.83214 78.606 10.6104C78.277 11.3887 77.7197 12.0535 77.0056 12.5207C76.2915 12.9879 75.4525 13.2365 74.5947 13.235C74.0256 13.235 73.4621 13.1247 72.9365 12.9105C72.4108 12.6963 71.9334 12.3824 71.5314 11.9867C71.1294 11.5911 70.8108 11.1214 70.5937 10.6046C70.3767 10.0878 70.2654 9.53402 70.2663 8.97497ZM74.5947 2.58494C73.3083 2.58494 72.0508 2.95973 70.9813 3.66187C69.9118 4.36401 69.0782 5.36195 68.5859 6.52958C68.0937 7.69719 67.9648 8.98209 68.2158 10.2216C68.4667 11.4611 69.0861 12.5997 69.9957 13.4933C70.9053 14.387 72.0642 14.9957 73.3258 15.2422C74.5874 15.4887 75.8951 15.3622 77.0835 14.8785C78.2716 14.3949 79.2876 13.5759 80.0021 12.5251C80.7166 11.4743 81.0983 10.2388 81.0983 8.97497C81.1052 8.13384 80.9418 7.29977 80.6182 6.52133C80.2937 5.7429 79.8151 5.03575 79.2098 4.44098C78.6044 3.84622 77.8846 3.37581 77.0919 3.05716C76.2996 2.73851 75.4507 2.57794 74.5947 2.58494Z" fill="currentColor"/>
    <path d="M85.434 2.58496H83.2661V15.3574H85.434V2.58496Z" fill="currentColor"/>
    <path fill-rule="evenodd" clip-rule="evenodd" d="M24.7627 15.3575V13.7375C24.0802 13.1385 23.5344 12.4046 23.1608 11.5839C22.7872 10.7631 22.5943 9.87409 22.5948 8.97499V15.3575H24.7627ZM24.7627 8.97499C24.7627 7.84519 25.2195 6.76165 26.0326 5.96274C26.8457 5.16383 27.9486 4.71506 29.0985 4.71506C30.2485 4.71506 31.3513 5.16383 32.1644 5.96274C32.9776 6.76165 33.4344 7.84519 33.4344 8.97499V13.7375C34.4162 12.8748 35.1082 11.7395 35.4189 10.4819C35.7296 9.22421 35.6442 7.90356 35.1742 6.69461C34.7042 5.48566 33.8717 4.44544 32.7868 3.71155C31.7019 2.97766 30.4157 2.58472 29.0985 2.58472C27.7813 2.58472 26.4952 2.97766 25.4102 3.71155C24.3254 4.44544 23.4928 5.48566 23.0228 6.69461C22.5528 7.90356 22.4676 9.22421 22.7782 10.4819C23.0889 11.7395 23.7809 12.8748 24.7627 13.7375V8.97499ZM33.4497 13.7375V15.3575H35.61V8.97499C35.6114 9.87349 35.4197 10.7622 35.0474 11.5829C34.6751 12.4036 34.1307 13.1378 33.4497 13.7375Z" fill="currentColor"/>
    </g>
    <defs>
    <clipPath id="clip0">
    <rect width="100" height="15" fill="white" transform="translate(0.983887 0.5)"/>
    </clipPath>
    </defs>
</svg>
