<svg width="101" height="16" viewBox="0 0 101 16" fill="none" xmlns="http://www.w3.org/2000/svg">
    <g clip-path="url(#clip0)">
    <path fill-rule="evenodd" clip-rule="evenodd" d="M91.4562 10.1539H100.66C100.711 9.81209 100.737 9.4661 100.739 9.11945V8.08497H91.4793C91.3187 8.77352 91.3187 9.49647 91.4793 10.185L91.4562 10.1539ZM100.739 9.15048V8.116H100.66C100.715 8.44202 100.747 8.77233 100.757 9.10398L100.739 9.15048ZM89.5349 10.185H91.4562C91.2955 9.49647 91.2955 8.77352 91.4562 8.08497H89.5349C89.4298 8.78009 89.4298 9.4899 89.5349 10.185ZM95.0904 4.92981C96.0039 4.92468 96.8881 5.29255 97.5765 5.96428H99.9742C99.3927 4.8416 98.5159 3.94657 97.4626 3.40123C96.4089 2.85589 95.2307 2.68679 94.0881 2.91698C92.946 3.14717 91.8946 3.76545 91.0784 4.68752C90.2617 5.60959 89.7196 6.79057 89.5256 8.0695H91.4464C91.652 7.16169 92.1233 6.3566 92.7849 5.78216C93.4469 5.20767 94.2617 4.89675 95.0997 4.89878L95.0904 4.92981ZM92.5997 12.285H90.2015C90.7826 13.4076 91.6594 14.3028 92.7127 14.8484C93.7654 15.394 94.9432 15.5636 96.0858 15.3339C97.2284 15.1043 98.2793 14.4868 99.0964 13.5653C99.9131 12.6439 100.456 11.4635 100.65 10.185H98.7293C98.5677 10.8801 98.2492 11.5175 97.8048 12.0363C97.3603 12.555 96.8043 12.938 96.19 13.1485C95.5752 13.3591 94.9224 13.3903 94.2941 13.2391C93.6654 13.0879 93.0821 12.7595 92.5997 12.285Z" fill="currentColor"/>
    <path fill-rule="evenodd" clip-rule="evenodd" d="M42.3266 8.0539H35.044C34.8834 8.7424 34.8834 9.4654 35.044 10.1539H42.3266C42.4872 9.4654 42.4872 8.7424 42.3266 8.0539ZM38.6876 4.89873C39.685 4.9001 40.6412 5.34375 41.346 6.13225C42.0509 6.92068 42.4469 7.9895 42.4469 9.1039C42.446 9.45304 42.4057 9.80063 42.3266 10.1384H44.2481C44.2994 9.79649 44.3257 9.45056 44.3268 9.1039C44.3484 8.26106 44.2185 7.42188 43.9447 6.63614C43.671 5.85035 43.2586 5.13391 42.7326 4.5292C42.2067 3.92449 41.5778 3.44378 40.8826 3.11553C40.1874 2.78728 39.4401 2.61816 38.6853 2.61816C37.9306 2.61816 37.1837 2.78728 36.4885 3.11553C35.7933 3.44378 35.164 3.92449 34.638 4.5292C34.112 5.13391 33.7001 5.85035 33.4263 6.63614C33.1526 7.42188 33.0227 8.26106 33.0443 9.1039C33.0454 9.45056 33.0717 9.79649 33.123 10.1384H35.044C34.965 9.80063 34.9246 9.45304 34.9238 9.1039C34.9238 7.98863 35.3206 6.91902 36.0264 6.13038C36.7323 5.34177 37.6894 4.89873 38.6876 4.89873ZM38.6876 13.3039C37.8538 13.3039 37.0435 12.9946 36.3841 12.4244C35.7246 11.8543 35.2532 11.0557 35.044 10.1539H33.123C33.3175 11.4324 33.86 12.6129 34.6769 13.5343C35.4938 14.4557 36.5451 15.0733 37.6875 15.3029C38.83 15.5325 40.0082 15.3629 41.0612 14.8173C42.1142 14.2717 42.9911 13.3765 43.5722 12.2539H41.1738C40.4876 12.9313 39.6032 13.3047 38.6876 13.3039Z" fill="currentColor"/>
    <path fill-rule="evenodd" clip-rule="evenodd" d="M48.0906 9.10389C48.0906 8.2732 48.311 7.46119 48.7244 6.77051C49.1373 6.07979 49.7244 5.54149 50.4114 5.22361C51.0985 4.90572 51.854 4.82253 52.5836 4.98459C53.3128 5.14664 53.9822 5.54667 54.5082 6.13405C55.0336 6.72143 55.392 7.46977 55.5369 8.28453C55.6822 9.09924 55.6077 9.94374 55.3235 10.7112C55.0387 11.4786 54.5568 12.1346 53.9383 12.596C53.3202 13.0576 52.5938 13.3039 51.8503 13.3039C50.8531 13.3039 49.8966 12.8614 49.1915 12.0737C48.4869 11.2861 48.0906 10.2178 48.0906 9.10389ZM51.8503 2.79872C50.7336 2.7977 49.642 3.16662 48.7133 3.85882C47.7846 4.55102 47.0606 5.53539 46.6328 6.68744C46.2049 7.83944 46.0923 9.10736 46.3095 10.3308C46.5267 11.5542 47.0639 12.6782 47.8531 13.5605C48.642 14.4428 49.6475 15.0438 50.7424 15.2875C51.8373 15.5312 52.9725 15.4067 54.004 14.9296C55.0355 14.4525 55.9174 13.6444 56.5378 12.6074C57.1577 11.5704 57.4887 10.3512 57.4887 9.10389C57.4906 8.27501 57.3466 7.45389 57.0637 6.68744C56.7813 5.921 56.366 5.22432 55.8424 4.63725C55.3184 4.05019 54.6961 3.58427 54.0114 3.26613C53.3262 2.94799 52.592 2.78388 51.8503 2.7832V2.79872Z" fill="currentColor"/>
    <path fill-rule="evenodd" clip-rule="evenodd" d="M74.4138 15.4039V9.10391C74.4152 9.99062 74.2485 10.8675 73.9244 11.6769C73.6003 12.4864 73.1267 13.2101 72.5346 13.8005V15.4039H74.4138ZM72.5346 9.10391C72.5346 9.93564 72.3138 10.7486 71.9003 11.4402C71.4865 12.1317 70.899 12.6707 70.211 12.989C69.5235 13.3073 68.7666 13.3906 68.0365 13.2283C67.3064 13.066 66.6355 12.6655 66.1092 12.0774C65.5828 11.4893 65.2244 10.7401 65.0791 9.92431C64.9342 9.10857 65.0082 8.26309 65.2929 7.49467C65.5781 6.72626 66.0605 6.06952 66.6795 5.60745C67.2985 5.14537 68.0263 4.89875 68.7707 4.89875C69.7656 4.90421 70.7184 5.34968 71.4203 6.13769C72.1221 6.92576 72.5161 7.99221 72.5161 9.10391H72.5346ZM68.7707 15.4039C69.8874 15.4049 70.9791 15.0359 71.9078 14.3435C72.8365 13.651 73.5605 12.6664 73.9878 11.5141C74.4156 10.3617 74.5281 9.09352 74.3105 7.86993C74.0929 6.64635 73.5554 5.52242 72.7661 4.64032C71.9763 3.75821 70.9703 3.1576 69.8754 2.91448C68.78 2.67136 67.6448 2.79666 66.6133 3.27452C65.5818 3.75238 64.7008 4.56134 64.0809 5.59901C63.461 6.63667 63.1309 7.85643 63.1318 9.10391C63.1309 9.93166 63.2754 10.7515 63.5582 11.5164C63.8411 12.2814 64.2568 12.9764 64.7809 13.5618C65.3045 14.147 65.9267 14.611 66.6115 14.9271C67.2962 15.2433 68.03 15.4053 68.7707 15.4039Z" fill="currentColor"/>
    <path d="M61.2478 2.79871H59.3682V15.4039H61.2478V2.79871Z" fill="currentColor"/>
    <path fill-rule="evenodd" clip-rule="evenodd" d="M21.7618 15.4039V13.8005C21.1697 13.2101 20.6959 12.4864 20.372 11.6769C20.0481 10.8675 19.8809 9.99061 19.8819 9.1039V15.4039H21.7618ZM21.7618 9.1039C21.7441 8.53964 21.828 7.97714 22.0091 7.44997C22.1901 6.9228 22.4646 6.44176 22.8157 6.03557C23.1667 5.62936 23.5874 5.3063 24.0526 5.08565C24.5178 4.865 25.018 4.75128 25.5233 4.75128C26.0288 4.75128 26.5289 4.865 26.9941 5.08565C27.4593 5.3063 27.88 5.62936 28.2311 6.03557C28.5821 6.44176 28.8561 6.9228 29.0372 7.44997C29.2182 7.97714 29.3026 8.53964 29.285 9.1039V13.8005C30.137 12.9493 30.7377 11.8291 31.0075 10.5881C31.2772 9.34711 31.2032 8.04387 30.7954 6.8508C30.3877 5.65779 29.6653 4.63121 28.7239 3.90696C27.7824 3.18271 26.6664 2.79492 25.5233 2.79492C24.3803 2.79492 23.2643 3.18271 22.3229 3.90696C21.3814 4.63121 20.659 5.65779 20.2513 6.8508C19.8435 8.04387 19.7695 9.34711 20.0392 10.5881C20.309 11.8291 20.9097 12.9493 21.7618 13.8005V9.1039ZM29.285 13.8005V15.4039H31.1644V9.1039C31.1653 9.99061 30.9987 10.8675 30.6747 11.6769C30.3508 12.4864 29.877 13.2101 29.285 13.8005Z" fill="currentColor"/>
    <path fill-rule="evenodd" clip-rule="evenodd" d="M76.2941 2.78326V9.08841C76.2927 8.20175 76.4598 7.32487 76.7839 6.51544C77.108 5.70597 77.5811 4.98226 78.1732 4.39187V2.78326H76.2941ZM78.1732 9.08841C78.1723 8.25627 78.3927 7.44255 78.8056 6.75022C79.2191 6.05789 79.807 5.5181 80.495 5.19918C81.183 4.88026 81.9399 4.79655 82.6705 4.95864C83.401 5.12074 84.0718 5.52133 84.5987 6.10977C85.1255 6.69818 85.4839 7.44793 85.6292 8.26413C85.7742 9.08034 85.6992 9.92629 85.414 10.6949C85.1283 11.4635 84.645 12.1202 84.0255 12.5819C83.4056 13.0435 82.6774 13.2894 81.9325 13.2884C80.9385 13.2871 79.9848 12.8463 79.2806 12.0623C78.576 11.2783 78.1783 10.2148 78.1732 9.10392V9.08841ZM81.9325 2.78326C80.8163 2.78326 79.7251 3.15305 78.7973 3.84587C77.8691 4.53869 77.1459 5.52343 76.7191 6.67553C76.2918 7.82768 76.1797 9.09544 76.3973 10.3185C76.6154 11.5416 77.1529 12.6651 77.9422 13.5469C78.7316 14.4287 79.7371 15.0292 80.8316 15.2724C81.9265 15.5158 83.0612 15.3909 84.0922 14.9136C85.1237 14.4364 86.0052 13.6283 86.6251 12.5914C87.245 11.5545 87.5765 10.3355 87.5765 9.08841C87.5792 8.25948 87.4353 7.43805 87.1529 6.67149C86.87 5.90499 86.4547 5.20855 85.9302 4.62238C85.4056 4.03621 84.782 3.57189 84.0959 3.25624C83.4098 2.94059 82.6746 2.77984 81.9325 2.78326Z" fill="currentColor"/>
    </g>
    <defs>
    <clipPath id="clip0">
    <rect width="100" height="15" fill="white" transform="translate(0.983887 0.584961)"/>
    </clipPath>
    </defs>
</svg>
