<svg width="21" height="24" viewBox="0 0 21 24" fill="none" xmlns="http://www.w3.org/2000/svg">
<path fill-rule="evenodd" clip-rule="evenodd" d="M4.19697 7V9.75H2.90909C1.48653 9.75 0.333313 10.9812 0.333313 12.5V20.75C0.333313 22.2688 1.48653 23.5 2.90909 23.5H18.3637C19.7863 23.5 20.9395 22.2688 20.9395 20.75V12.5C20.9395 10.9812 19.7863 9.75 18.3637 9.75H17.0758V7C17.0758 3.20304 14.1928 0.125 10.6364 0.125C7.08001 0.125 4.19697 3.20304 4.19697 7ZM6.77271 7C6.77271 4.72183 8.50253 2.875 10.6364 2.875C12.7702 2.875 14.5 4.72183 14.5 7V9.75H6.77271V7Z" fill="#979797"/>
</svg>
