<svg width="401" height="401" viewBox="0 0 401 401" fill="none" xmlns="http://www.w3.org/2000/svg">
<path d="M35.0581 326.42C35.9306 328.535 36.8949 330.65 37.9511 332.674C53.6559 362.869 85.5246 381.903 119.506 385.323C146.691 388.023 173.141 379.338 195.871 365.164C218.556 351.034 236.74 331.145 261.951 320.795C297.493 306.26 337.122 294.785 364.996 264.006C396.681 229.042 408.896 176.033 393.972 131.304C379.461 87.6555 331.29 73.5258 293.865 54.3113C226.592 19.7072 133.42 -3.28727 63.391 37.3467C-20.5055 85.9905 -5.25994 196.418 21.3279 273.051C27.3894 290.51 28.1242 309.32 35.0581 326.42Z" fill="#E8EFF9"/>
<path fill-rule="evenodd" clip-rule="evenodd" d="M77.7182 118.66L77.8559 119.515C77.8559 119.523 77.8594 119.555 77.8652 119.611C78.0527 121.398 80.7405 147.021 54.0233 160.374L53.5641 160.599L53.1049 160.374C25.6445 146.604 29.2263 119.785 29.2722 119.515L29.41 118.66H30.2825C47.3189 118.66 52.7834 113.305 52.8293 113.26L53.5641 112.45L54.2988 113.26C54.3447 113.305 59.8552 118.66 76.8457 118.66H77.7182ZM53.5183 158.349C63.529 153.219 70.3252 145.749 73.7233 136.119C76.203 129.055 76.0652 122.935 75.8816 120.685C61.7381 120.505 55.447 116.77 53.5183 115.285C51.5897 116.815 45.2986 120.505 31.1551 120.685C30.9715 122.89 30.8337 129.055 33.3134 136.119C36.7115 145.749 43.5077 153.219 53.5183 158.349Z" fill="#99B9EE"/>
<path fill-rule="evenodd" clip-rule="evenodd" d="M103.847 82.5706L104.811 85.0456L111.745 83.9206L111.837 81.2657C112.618 80.9057 113.352 80.4557 114.041 79.9157L116.521 80.9957L120.608 75.3708L118.771 73.4359C119.047 72.6259 119.23 71.8159 119.368 70.9609L121.894 70.016L120.746 63.2211L118.036 63.1311C117.669 62.3661 117.21 61.6462 116.659 60.9712L117.761 58.5412L112.067 54.5363L110.092 56.3363C109.266 56.0663 108.439 55.8413 107.566 55.7513L106.602 53.2764L99.6682 54.4013L99.5763 57.0563C98.7957 57.4163 98.061 57.8663 97.3722 58.4062L94.8925 57.3263L90.8055 62.9511L92.6424 64.8861C92.3668 65.6961 92.1372 66.506 92.0454 67.361L89.5198 68.306L90.6678 75.1008L93.3771 75.1908C93.7444 75.9558 94.2037 76.6758 94.7547 77.3508L93.6526 79.7807L99.3467 83.7856L101.321 81.9857C102.148 82.2557 102.974 82.4806 103.847 82.5706ZM101.413 80.0508L100.862 79.8258L99.1632 81.3557L96.0406 79.1508L97.005 77.0808L96.6376 76.6308C95.9488 75.7759 95.3518 74.8759 94.8926 73.8859L94.663 73.3459L92.367 73.2559L91.7241 69.521L93.8824 68.711L93.9283 68.126C94.0201 67.0461 94.2497 65.9661 94.663 64.9761L94.8926 64.4361L93.2854 62.7712L95.5355 59.7113L97.6478 60.6562L98.107 60.2962C98.9795 59.6213 99.8979 59.0363 100.908 58.5863L101.459 58.3613L101.551 56.1113L105.362 55.4814L106.189 57.5963L106.786 57.6413C107.888 57.7313 108.99 57.9563 110 58.3613L110.551 58.5863L112.251 57.0563L115.373 59.2613L114.409 61.3312L114.776 61.7812C115.465 62.6362 116.062 63.5362 116.521 64.5261L116.751 65.0661L119.047 65.1561L119.69 68.891L117.531 69.701L117.485 70.286C117.394 71.366 117.164 72.4459 116.751 73.4359L116.521 73.9759L118.128 75.6409L115.878 78.7008L113.766 77.7558L113.307 78.1158C112.434 78.7908 111.516 79.3758 110.506 79.8258L109.955 80.0508L109.863 82.3007L106.051 82.9307L105.225 80.8157L104.628 80.7707C103.526 80.6807 102.424 80.4557 101.413 80.0508ZM105.638 76.6758C104.076 76.6758 102.515 76.1808 101.229 75.2808C97.7853 72.8959 97.0046 68.216 99.4384 64.8411C101.872 61.4661 106.648 60.7012 110.092 63.0861C111.745 64.2561 112.847 65.966 113.215 67.946C113.536 69.9259 113.077 71.9059 111.929 73.5258C110.735 75.1458 108.99 76.2258 106.969 76.5858C106.89 76.5929 106.812 76.6 106.737 76.6069C106.334 76.6438 105.986 76.6758 105.638 76.6758ZM101 65.9211C102.102 64.3911 103.847 63.5811 105.638 63.5811C106.786 63.5811 107.934 63.9411 108.944 64.6161C110.184 65.4711 110.965 66.731 111.24 68.216C111.516 69.701 111.148 71.1859 110.276 72.4009C109.403 73.6159 108.118 74.3808 106.602 74.6508C105.087 74.9208 103.571 74.5608 102.332 73.7059C101.092 72.8509 100.311 71.5909 100.036 70.106C99.76 68.621 100.127 67.136 101 65.9211Z" fill="#99B9EE"/>
<path fill-rule="evenodd" clip-rule="evenodd" d="M322.795 152.859L324.953 158.394L339.418 156.009L339.602 150.114C341.714 149.124 343.689 147.909 345.48 146.514L350.99 148.944L359.486 137.244L355.353 132.924C356.133 130.809 356.638 128.559 356.914 126.309L362.562 124.195L360.128 110.02L354.113 109.84C353.103 107.77 351.863 105.835 350.439 104.08L352.919 98.6802L340.98 90.3554L336.571 94.4053C334.413 93.6403 332.117 93.1453 329.821 92.8753L327.663 87.3405L313.198 89.7254L313.014 95.6203C310.902 96.6102 308.927 97.8252 307.136 99.2202L301.626 96.7902L293.131 108.49L297.263 112.81C296.483 114.925 295.978 117.175 295.702 119.425L290.054 121.54L292.488 135.714L298.503 135.894C299.514 137.964 300.753 139.899 302.177 141.654L299.697 147.054L311.637 155.379L316.045 151.329C318.203 152.094 320.499 152.589 322.795 152.859ZM316.137 148.719L315.402 148.449L311.453 152.184L302.957 146.244L305.208 141.294L304.702 140.709C303.003 138.729 301.58 136.524 300.524 134.184L300.202 133.464L294.692 133.284L292.947 123.205L298.09 121.27L298.136 120.46C298.365 117.895 298.962 115.375 299.881 112.99L300.156 112.27L296.391 108.31L302.36 99.9852L307.412 102.19L308.009 101.695C310.029 100.03 312.279 98.6352 314.667 97.6002L315.402 97.2853L315.586 91.8854L325.872 90.1754L327.846 95.2153L328.673 95.2603C331.29 95.4853 333.862 96.0703 336.296 96.9703L337.03 97.2403L341.071 93.5503L349.567 99.4902L347.316 104.44L347.822 105.025C349.521 107.005 350.944 109.21 352 111.55L352.322 112.27L357.832 112.45L359.577 122.53L354.434 124.465L354.388 125.275C354.159 127.84 353.562 130.359 352.643 132.744L352.368 133.464L356.133 137.424L350.072 145.749L345.02 143.544L344.423 144.039C342.403 145.704 340.153 147.099 337.765 148.134L337.03 148.449L336.847 153.849L326.56 155.559L324.586 150.519L323.759 150.429C321.142 150.204 318.57 149.619 316.137 148.719ZM326.239 139.179C322.887 139.179 319.535 138.189 316.596 136.164C309.111 130.944 307.366 120.73 312.693 113.395C318.019 106.06 328.443 104.35 335.928 109.57C343.413 114.79 345.158 125.005 339.832 132.339C336.571 136.794 331.428 139.179 326.239 139.179ZM314.805 114.88C317.514 111.1 321.877 109.075 326.285 109.075C329.086 109.075 331.933 109.885 334.459 111.64C337.535 113.8 339.556 116.95 340.199 120.595C340.796 124.24 339.923 127.884 337.765 130.899C333.265 137.109 324.448 138.549 318.111 134.139C315.034 131.979 313.014 128.829 312.371 125.185C311.774 121.54 312.601 117.895 314.805 114.88Z" fill="#99B9EE"/>
<path d="M101.367 259.641C99.1631 253.566 96.6375 246.727 99.4386 239.707C103.204 230.257 95.2139 225.397 88.1881 221.032C82.1266 217.342 76.4325 213.832 78.3612 208.028C80.4735 201.728 80.3357 196.868 77.9479 193.673C75.9274 190.973 72.3456 189.533 67.5699 189.578C63.7585 189.623 60.3604 185.033 56.7327 180.218C52.4621 174.548 48.0996 168.699 42.5892 170.003C41.6249 170.228 40.8442 170.768 40.385 171.623C38.4564 175.178 41.4871 183.638 44.7475 192.638C48.2374 202.358 52.2325 213.337 49.615 218.017C46.768 223.147 51.911 227.827 57.3756 232.822C63.1615 238.087 69.7281 244.072 67.9832 251.586C66.33 258.606 65.9627 261.216 66.9729 262.746C67.7536 263.961 69.3608 264.231 71.7945 264.681C73.4477 264.996 75.56 265.356 78.1316 266.166C89.1984 269.541 92.4128 276.561 92.4587 276.651L92.5965 276.966L92.9179 276.921C98.2447 276.111 101.367 274.626 102.837 272.241C102.929 272.106 102.974 271.971 103.066 271.836C104.628 268.641 103.112 264.456 101.367 259.641Z" fill="#CEDCF3"/>
<path d="M73.0803 246.232C74.9171 249.022 76.2488 251.452 76.1111 254.871C76.0192 258.066 75.5141 261.216 75.2386 264.366C75.1927 265.041 75.1467 265.671 75.1008 266.301C74.1824 265.536 73.3099 264.771 72.3915 264.006C71.9782 263.961 71.565 263.961 71.1058 263.961C72.3915 264.996 73.7232 266.121 75.009 267.246C74.8712 269.451 74.8253 271.656 74.8253 273.861C74.8253 275.166 74.7794 276.561 74.8712 277.866C73.6773 277.146 72.4374 276.426 71.2894 275.706C67.7076 273.546 64.3555 271.521 61.7839 270.441C59.8093 269.631 57.6052 268.911 55.4928 268.236C49.9824 266.481 44.3342 264.681 42.4515 260.856C41.4871 258.876 41.579 256.491 42.727 253.611C45.62 246.187 42.9107 244.927 38.3645 242.767C35.0583 241.192 30.5581 239.077 26.0579 233.722C24.0833 231.382 22.3383 229.357 20.777 227.602C16.1391 222.247 13.5675 219.322 13.889 217.612C13.9808 217.207 14.2104 216.847 14.6696 216.487C14.8992 216.307 15.1748 216.127 15.5421 215.947C17.2871 215.002 19.0321 215.722 21.0066 216.532C23.67 217.612 26.9304 219.007 31.4765 216.712C35.0583 214.912 39.0533 213.247 41.4412 214.597C43.0943 215.497 44.0587 217.837 44.3801 221.662C44.4719 222.877 44.8852 223.732 45.574 224.227C46.5843 224.947 48.1456 224.857 49.9365 224.497C51.1763 226.162 52.7835 226.972 54.7122 227.647C57.4215 228.592 59.442 229.447 61.4166 231.607C65.6412 236.287 69.7281 241.057 73.0803 246.232Z" fill="#CEDCF3"/>
<path d="M58.4318 253.656C55.6766 251.856 53.2887 247.492 50.9927 243.262C47.8701 237.502 44.6098 231.562 40.1555 231.697C32.9919 231.877 26.609 223.597 26.5171 223.552L25.9202 224.002C26.1957 224.362 32.6245 232.642 40.1555 232.462C44.1505 232.372 47.3191 238.087 50.3039 243.667C52.6458 247.942 55.0796 252.396 57.9726 254.331C59.7175 255.456 62.932 257.751 66.7434 260.676C66.7434 260.361 66.7434 260.046 66.7434 259.731C63.3912 256.986 60.4064 254.916 58.4318 253.656Z" fill="white"/>
<path d="M300.432 309.41C300.432 309.41 304.564 299.33 297.034 285.021C289.457 270.711 283.349 272.916 301.58 261.891C319.81 250.867 301.672 216.217 317.193 211.807C332.714 207.398 346.168 151.284 357.97 158.439C369.771 165.594 354.021 193.088 362.47 201.368C370.873 209.648 372.021 220.132 354.618 228.637C337.214 237.142 366.97 269.631 343.367 279.531C319.764 289.431 326.56 328.265 300.432 309.41Z" fill="#CEDCF3"/>
<path d="M307.641 320.075C307.595 319.94 305.07 307.07 313.106 290.421C321.279 273.456 325.183 254.916 323.575 240.787C322.703 233.137 327.708 230.167 332.53 227.287C337.306 224.452 342.219 221.482 341.944 213.967C341.714 207.173 344.653 191.243 344.745 190.568L345.801 190.748C345.755 190.928 342.77 207.263 343 213.922C343.275 222.067 338.086 225.172 333.081 228.142C328.305 230.977 323.851 233.677 324.632 240.652C326.285 254.916 322.336 273.681 314.07 290.826C306.218 307.16 308.651 319.715 308.697 319.85L307.641 320.075Z" fill="white"/>
<path d="M370.323 236.467C376.889 233.407 383.869 234.802 380.242 241.237C376.614 247.672 371.195 248.167 372.206 253.251C373.216 258.336 375.879 263.871 367.338 267.111C358.797 270.306 354.802 269.766 349.613 279.171C344.378 288.576 342.587 295.55 333.632 293.3C324.678 291.006 332.117 279.441 336.755 274.581C336.755 274.581 343.046 269.361 342.954 259.956C342.862 250.552 338.913 244.252 351.312 244.882C363.71 245.422 365.869 238.537 370.323 236.467Z" fill="#CEDCF3"/>
<path d="M332.209 299.87C332.576 298.655 341.209 269.541 348.281 266.391C355.491 263.151 359.394 254.691 361.093 249.967C363.297 243.802 372.711 242.587 373.078 242.542L373.216 243.577C373.124 243.577 364.078 244.747 362.103 250.281C359.991 256.266 355.95 264.096 348.74 267.336C342.128 270.306 333.357 299.87 333.265 300.185L332.209 299.87Z" fill="white"/>
<path d="M104.765 276.426C90.6217 272.961 90.4381 265.491 90.2544 258.291C90.1166 252.396 89.9789 246.817 82.3102 243.397C72.1618 238.852 71.9322 230.437 71.7026 223.012C71.5189 217.477 71.3811 212.257 67.1564 209.423C57.008 202.628 48.4209 186.158 48.3291 185.978L49.1097 185.573C49.2016 185.753 57.6509 201.998 67.6616 208.703C72.2536 211.762 72.4373 217.207 72.575 222.967C72.8046 230.482 73.0343 238.312 82.6775 242.587C90.8054 246.232 90.9891 252.351 91.1269 258.246C91.3106 265.446 91.4942 272.286 104.995 275.571L104.765 276.426Z" fill="white"/>
<path d="M85.7083 269.766H318.019V105.43C318.019 103.09 316.091 101.155 313.657 101.155H90.0707C87.6828 101.155 85.7083 103.045 85.7083 105.43V269.766Z" fill="#E0E9F8"/>
<rect x="309.372" y="239.128" width="215.458" height="129.732" transform="rotate(-180 309.372 239.128)" fill="#0B4870" stroke="white" stroke-width="0.5"/>
<path d="M318.019 245.422H201.887H85.8L60.3601 338.524H202.667H343.413L318.019 245.422Z" fill="#E0E9F8"/>
<path d="M94.571 261.756H108.852C109.449 261.756 109.908 262.206 109.771 262.701L108.393 268.776C108.301 269.136 107.934 269.406 107.475 269.406H92.9638C92.3668 269.406 91.9076 268.956 92.0454 268.416L93.6526 262.341C93.7444 262.026 94.1118 261.756 94.571 261.756Z" fill="#99B9EE" stroke="#7AA7F1" stroke-width="0.5"/>
<path d="M115.373 261.756H126.164L124.741 269.451H113.72L115.373 261.756Z" fill="#99B9EE" stroke="#7AA7F1" stroke-width="0.5"/>
<path d="M131.537 261.756H142.328L141.226 269.451H130.205L131.537 261.756Z" fill="#99B9EE" stroke="#7AA7F1" stroke-width="0.5"/>
<path d="M147.747 261.756H158.538L157.712 269.451H146.691L147.747 261.756Z" fill="#99B9EE" stroke="#7AA7F1" stroke-width="0.5"/>
<path d="M163.911 261.756H174.702L174.197 269.451H163.176L163.911 261.756Z" fill="#99B9EE" stroke="#7AA7F1" stroke-width="0.5"/>
<path d="M180.074 261.756H190.866L190.682 269.451H179.661L180.074 261.756Z" fill="#99B9EE" stroke="#7AA7F1" stroke-width="0.5"/>
<path d="M309.57 261.756H293.36L295.105 269.451H311.59L309.57 261.756Z" fill="#99B9EE" stroke="#7AA7F1" stroke-width="0.5"/>
<path d="M287.987 261.756H277.196L278.62 269.451H289.64L287.987 261.756Z" fill="#99B9EE" stroke="#7AA7F1" stroke-width="0.5"/>
<path d="M271.823 261.756H261.032L262.134 269.451H273.155L271.823 261.756Z" fill="#99B9EE" stroke="#7AA7F1" stroke-width="0.5"/>
<path d="M255.614 261.756H244.822L245.649 269.451H256.67L255.614 261.756Z" fill="#99B9EE" stroke="#7AA7F1" stroke-width="0.5"/>
<path d="M239.449 261.756H228.658L229.163 269.451H240.184L239.449 261.756Z" fill="#99B9EE" stroke="#7AA7F1" stroke-width="0.5"/>
<path d="M223.286 261.756H212.495L212.678 269.451H223.699L223.286 261.756Z" fill="#99B9EE" stroke="#7AA7F1" stroke-width="0.5"/>
<path d="M196.284 261.756H207.076L207.213 269.451H196.284V261.756Z" fill="#99B9EE" stroke="#7AA7F1" stroke-width="0.5"/>
<path d="M89.8409 275.166H112.342L111.056 283.086H88.0959L89.8409 275.166Z" fill="#99B9EE" stroke="#7AA7F1" stroke-width="0.5"/>
<path d="M313.06 275.166H285.232L286.794 283.086H315.218L313.06 275.166Z" fill="#99B9EE" stroke="#7AA7F1" stroke-width="0.5"/>
<path d="M279.63 275.166H268.517L269.757 283.086H281.145L279.63 275.166Z" fill="#99B9EE" stroke="#7AA7F1" stroke-width="0.5"/>
<path d="M262.915 275.166H251.802L252.721 283.086H264.109L262.915 275.166Z" fill="#99B9EE" stroke="#7AA7F1" stroke-width="0.5"/>
<path d="M246.2 275.166H235.087L235.73 283.086H247.073L246.2 275.166Z" fill="#99B9EE" stroke="#7AA7F1" stroke-width="0.5"/>
<path d="M229.485 275.166H218.372L218.694 283.086H230.036L229.485 275.166Z" fill="#99B9EE" stroke="#7AA7F1" stroke-width="0.5"/>
<path d="M86.4429 289.251H109.495L107.796 297.125H84.3306L86.4429 289.251Z" fill="#99B9EE" stroke="#7AA7F1" stroke-width="0.5"/>
<path d="M115.235 289.251H126.761L125.429 297.125H113.674L115.235 289.251Z" fill="#99B9EE" stroke="#7AA7F1" stroke-width="0.5"/>
<path d="M132.547 289.251H144.073H218.923L219.245 297.125H131.261L132.547 289.251Z" fill="#99B9EE" stroke="#7AA7F1" stroke-width="0.5"/>
<path d="M224.709 289.251H236.235L236.878 297.125H225.122L224.709 289.251Z" fill="#99B9EE" stroke="#7AA7F1" stroke-width="0.5"/>
<path d="M241.975 289.251H253.501L254.465 297.125H242.71L241.975 289.251Z" fill="#99B9EE" stroke="#7AA7F1" stroke-width="0.5"/>
<path d="M259.287 289.251H270.813L272.053 297.125H260.343L259.287 289.251Z" fill="#99B9EE" stroke="#7AA7F1" stroke-width="0.5"/>
<path d="M276.553 289.251H288.079L289.641 297.125H277.931L276.553 289.251Z" fill="#99B9EE" stroke="#7AA7F1" stroke-width="0.5"/>
<path d="M293.819 289.251H316.871L318.984 297.125H295.518L293.819 289.251Z" fill="#99B9EE" stroke="#7AA7F1" stroke-width="0.5"/>
<path d="M212.816 275.166H201.749V283.086H213L212.816 275.166Z" fill="#99B9EE" stroke="#7AA7F1" stroke-width="0.5"/>
<path d="M196.101 275.166H184.942L184.621 283.086H196.009L196.101 275.166Z" fill="#99B9EE" stroke="#7AA7F1" stroke-width="0.5"/>
<path d="M179.386 275.166H168.227L167.584 283.086H178.972L179.386 275.166Z" fill="#99B9EE" stroke="#7AA7F1" stroke-width="0.5"/>
<path d="M162.671 275.166H151.512L150.548 283.086H161.936L162.671 275.166Z" fill="#99B9EE" stroke="#7AA7F1" stroke-width="0.5"/>
<path d="M145.956 275.166H134.797L133.511 283.086H144.9L145.956 275.166Z" fill="#99B9EE" stroke="#7AA7F1" stroke-width="0.5"/>
<path d="M129.241 275.166H118.082L116.521 283.086H127.863L129.241 275.166Z" fill="#99B9EE" stroke="#7AA7F1" stroke-width="0.5"/>
<path d="M95.0759 256.941L96.9127 250.102H102.148L100.449 256.941H95.0759Z" fill="#99B9EE" stroke="#7AA7F1" stroke-width="0.5"/>
<path d="M107.383 250.102H117.852L116.429 256.941H105.729L107.383 250.102Z" fill="#99B9EE" stroke="#7AA7F1" stroke-width="0.5"/>
<path d="M123.133 250.102H133.603L132.409 256.941H121.756L123.133 250.102Z" fill="#99B9EE" stroke="#7AA7F1" stroke-width="0.5"/>
<path d="M138.838 250.102H149.308L148.39 256.941H137.736L138.838 250.102Z" fill="#99B9EE" stroke="#7AA7F1" stroke-width="0.5"/>
<path d="M154.543 250.102H165.013L164.37 256.941H153.717L154.543 250.102Z" fill="#99B9EE" stroke="#7AA7F1" stroke-width="0.5"/>
<path d="M170.248 250.102H180.718L180.35 256.941H169.697L170.248 250.102Z" fill="#99B9EE" stroke="#7AA7F1" stroke-width="0.5"/>
<path d="M185.953 250.102H196.422L196.331 256.941H185.677L185.953 250.102Z" fill="#99B9EE" stroke="#7AA7F1" stroke-width="0.5"/>
<path d="M201.657 250.102H212.127L212.311 256.941H201.657V250.102Z" fill="#99B9EE" stroke="#7AA7F1" stroke-width="0.5"/>
<path d="M217.362 250.102H227.832L228.291 256.941H217.637L217.362 250.102Z" fill="#99B9EE" stroke="#7AA7F1" stroke-width="0.5"/>
<path d="M233.067 250.102H243.583L244.271 256.941H233.618L233.067 250.102Z" fill="#99B9EE" stroke="#7AA7F1" stroke-width="0.5"/>
<path d="M248.817 250.102H259.287L260.297 256.941H249.644L248.817 250.102Z" fill="#99B9EE" stroke="#7AA7F1" stroke-width="0.5"/>
<path d="M264.522 250.102H274.992L276.278 256.941H265.624L264.522 250.102Z" fill="#99B9EE" stroke="#7AA7F1" stroke-width="0.5"/>
<path d="M280.227 250.102H290.697L292.258 256.941H281.605L280.227 250.102Z" fill="#99B9EE" stroke="#7AA7F1" stroke-width="0.5"/>
<path d="M295.932 250.102H306.401L308.238 256.941H297.585L295.932 250.102Z" fill="#99B9EE" stroke="#7AA7F1" stroke-width="0.5"/>
<path d="M336.02 345.769H67.7533C63.6664 345.769 60.3601 342.529 60.3601 338.524H343.413C343.413 342.529 340.107 345.769 336.02 345.769Z" fill="#CEDCF3"/>
<path d="M234.812 308.42C234.536 306.8 233.067 305.585 231.413 305.585H201.933H172.406C170.707 305.585 169.283 306.8 169.008 308.42L165.334 330.245C164.967 332.315 166.62 334.205 168.732 334.205H201.887H235.041C237.199 334.205 238.807 332.315 238.439 330.245L234.812 308.42Z" fill="#CEDCF3"/>
<rect x="108.439" y="120.415" width="24.0163" height="2.42994" fill="#F7F7F7"/>
<rect x="139.205" y="138.549" width="17.312" height="2.42994" fill="#F7F7F7"/>
<rect x="159.227" y="138.549" width="11.4801" height="2.42994" fill="#F7F7F7"/>
<rect x="108.714" y="184.178" width="11.4801" height="2.42994" fill="#F7F7F7"/>
<rect x="173.002" y="138.549" width="27.7818" height="2.42994" fill="#F7F7F7"/>
<rect x="108.714" y="175.043" width="17.863" height="2.42994" fill="#F7F7F7"/>
<rect x="133.603" y="193.223" width="10.8831" height="2.42994" fill="#F7F7F7"/>
<rect x="108.714" y="193.223" width="21.5826" height="2.42994" fill="#F7F7F7"/>
<rect x="108.714" y="202.313" width="11.8934" height="2.42994" fill="#F7F7F7"/>
<rect x="137.139" y="120.415" width="17.0365" height="2.42994" fill="#F7F7F7"/>
<rect x="137.139" y="147.639" width="17.0365" height="2.42994" fill="#F7F7F7"/>
<rect x="128.598" y="156.684" width="7.30134" height="2.42994" fill="#F7F7F7"/>
<rect x="121.342" y="165.909" width="16.3476" height="2.42994" fill="#F7F7F7"/>
<rect x="140.17" y="165.909" width="22.5928" height="2.42994" fill="#F7F7F7"/>
<rect x="108.714" y="156.774" width="17.0365" height="2.42994" fill="#F7F7F7"/>
<rect x="108.714" y="165.909" width="10.1025" height="2.42994" fill="#F7F7F7"/>
<rect x="139.343" y="156.774" width="9.55143" height="2.42994" fill="#F7F7F7"/>
<rect x="109.036" y="211.357" width="9.55143" height="2.42994" fill="#F7F7F7"/>
<rect x="108.668" y="138.549" width="17.0365" height="2.42994" fill="#F7F7F7"/>
<rect x="123.73" y="184.178" width="17.0365" height="2.42994" fill="#F7F7F7"/>
<rect x="123.96" y="202.313" width="17.0365" height="2.42994" fill="#F7F7F7"/>
<rect x="154.221" y="202.313" width="17.0365" height="2.42994" fill="#F7F7F7"/>
<rect x="108.668" y="147.639" width="24.2919" height="2.42994" fill="#F7F7F7"/>
<rect x="222.505" y="120.415" width="17.0365" height="2.42994" fill="#F7F7F7"/>
<rect x="161.798" y="211.357" width="17.0365" height="2.42994" fill="#F7F7F7"/>
<rect x="244.822" y="120.415" width="11.3882" height="2.42994" fill="#F7F7F7"/>
<rect x="283.441" y="129.504" width="11.3882" height="2.42994" fill="#F7F7F7"/>
<rect x="158.768" y="120.415" width="21.7203" height="2.42994" fill="#F7F7F7"/>
<rect x="243.353" y="129.504" width="21.7203" height="2.42994" fill="#F7F7F7"/>
<rect x="216.719" y="138.549" width="21.7203" height="2.42994" fill="#F7F7F7"/>
<rect x="188.478" y="147.639" width="21.7203" height="2.42994" fill="#F7F7F7"/>
<rect x="241.148" y="138.549" width="15.4292" height="2.42994" fill="#F7F7F7"/>
<rect x="196.514" y="120.415" width="21.7203" height="2.42994" fill="#F7F7F7"/>
<rect x="171.763" y="147.639" width="12.7199" height="2.42994" fill="#F7F7F7"/>
<rect x="161.798" y="184.313" width="12.7199" height="2.42994" fill="#F7F7F7"/>
<rect x="184.483" y="120.415" width="7.94422" height="2.42994" fill="#F7F7F7"/>
<rect x="158.768" y="147.639" width="7.94422" height="2.42994" fill="#F7F7F7"/>
<rect x="270.308" y="129.504" width="7.94422" height="2.42994" fill="#F7F7F7"/>
<rect x="108.439" y="129.504" width="12.4444" height="2.42994" fill="#F7F7F7"/>
<rect x="141.639" y="175.088" width="9.82696" height="2.42994" fill="#F7F7F7"/>
<rect x="123.96" y="129.504" width="3.99507" height="2.42994" fill="#F7F7F7"/>
<rect x="206.341" y="129.504" width="33.2004" height="2.42994" fill="#F7F7F7"/>
<rect x="174.518" y="202.313" width="33.2004" height="2.42994" fill="#F7F7F7"/>
<rect x="130.894" y="129.504" width="4.08691" height="2.42994" fill="#F7F7F7"/>
<rect x="192.427" y="129.504" width="10.8372" height="2.42994" fill="#F7F7F7"/>
<rect x="203.31" y="138.549" width="10.8372" height="2.42994" fill="#F7F7F7"/>
<rect x="147.471" y="211.357" width="10.8372" height="2.42994" fill="#F7F7F7"/>
<rect x="166.482" y="129.504" width="23.0979" height="2.42994" fill="#F7F7F7"/>
<rect x="144.945" y="184.313" width="13.5006" height="2.42994" fill="#F7F7F7"/>
<rect x="144.119" y="202.313" width="6.75029" height="2.42994" fill="#F7F7F7"/>
<rect x="155.231" y="129.504" width="7.94422" height="2.42994" fill="#F7F7F7"/>
<rect x="128.506" y="138.549" width="7.94422" height="2.42994" fill="#F7F7F7"/>
<rect x="130.067" y="175.088" width="7.94422" height="2.42994" fill="#F7F7F7"/>
<rect x="138.379" y="129.504" width="13.8679" height="2.42994" fill="#F7F7F7"/>
<path d="M254.649 147.729C254.649 147.729 258.69 154.434 260.389 155.514C262.685 156.999 261.262 158.484 260.16 158.529C259.058 158.529 253.455 158.934 252.215 157.539C250.976 156.144 250.379 152.049 249.231 150.969C248.083 149.889 246.889 145.614 249.782 144.579C252.307 143.634 254.649 147.729 254.649 147.729Z" fill="#FFB750"/>
<path d="M252.858 144.804C252.858 144.804 257.496 152.679 258.277 153.804C259.058 154.974 256.762 154.974 255.338 154.434C253.914 153.894 250.333 148.269 249.828 147.234C249.231 146.019 249.736 144.624 249.736 144.624L252.858 144.804Z" fill="#FFE3CA"/>
<path d="M248.175 148.989L249.277 157.044L249.828 157.089L249.644 151.284L248.175 148.989Z" fill="#FFB750"/>
<path d="M214.561 147.729C214.561 147.729 218.602 154.434 220.301 155.514C222.597 156.999 221.173 158.484 220.071 158.529C218.969 158.529 213.367 158.934 212.127 157.539C210.887 156.144 210.29 152.049 209.142 150.969C207.994 149.889 206.754 145.479 209.693 144.579C212.265 143.769 214.561 147.729 214.561 147.729Z" fill="#FFB750"/>
<path d="M213.045 144.804C213.045 144.804 217.408 152.634 218.234 153.804C219.015 154.974 216.719 154.974 215.296 154.434C213.872 153.894 210.29 148.269 209.785 147.234C209.188 146.019 209.693 144.624 209.693 144.624L213.045 144.804Z" fill="#FFE3CA"/>
<path d="M208.132 148.989L209.188 157.044L209.785 157.089L209.602 151.284L208.132 148.989Z" fill="#FFB750"/>
<path d="M196.652 86.6656L233.204 103C233.204 103 237.291 104.305 237.751 108.76C239.174 122.62 249.736 144.579 249.736 144.579C253.134 146.199 252.858 144.804 252.858 144.804C250.7 138.054 248.129 110.335 247.164 99.2203C246.981 96.8803 246.843 95.2604 246.797 94.7204C246.797 94.3604 246.384 93.9104 245.695 93.3704C240.689 89.3655 220.025 81.1307 220.025 81.1307C204.642 80.7257 196.652 86.6656 196.652 86.6656Z" fill="#FFE3CA"/>
<path d="M189.764 93.6854C190.912 103.36 205.01 102.28 205.01 102.28H222.092C222.092 102.28 217.592 112.09 215.847 120.325C214.01 129.099 209.648 144.579 209.648 144.579C209.648 144.579 209.923 145.119 213.046 144.804C213.046 144.804 226.454 118.615 231.597 112C232.7 110.605 235.868 102.865 236.419 98.2753C236.603 96.7453 236.511 95.5303 235.914 95.0353C235.317 94.5403 233.939 93.6404 232.149 92.5154C226.776 89.1855 217.5 84.1006 212.311 82.9756C205.377 81.4457 194.402 78.5657 194.402 78.5657C194.402 78.5657 188.616 84.0106 189.764 93.6854Z" fill="#FFE3CA"/>
<path d="M201.382 19.0772C201.382 19.0772 198.81 14.3073 200.05 9.26743C201.29 4.18256 206.112 -0.85732 213.137 1.48262C220.163 3.82257 225.857 9.13243 221.633 15.3423C217.408 21.5071 225.444 24.3421 223.378 27.267C221.311 30.1919 222.092 33.2968 222.964 33.9718C223.837 34.6468 226.638 37.0768 226.316 40.0017C225.995 42.8816 212.678 31.5869 212.678 31.5869C212.678 31.5869 205.469 17.2322 201.382 19.0772Z" fill="#0B4870"/>
<path d="M222.826 79.9157C222.826 79.9157 221.77 84.9556 194.448 78.6108C194.448 78.6108 203.586 75.6408 222.826 79.9157Z" fill="#EB4747"/>
<path d="M194.126 80.0057C193.713 80.8157 193.3 81.5807 192.84 82.3907C202.805 82.6607 212.816 82.9757 222.78 83.2457C221.219 78.0708 221.724 71.051 222 65.7411C222.321 59.2162 225.995 54.7164 225.628 48.1465C227.602 48.4615 227.924 48.5065 229.898 48.8215C226.867 40.3617 225.857 36.1768 216.443 32.9369C213.367 31.8569 211.392 31.6769 208.086 31.9469C197.203 32.8469 193.943 32.9369 188.57 42.6117C196.927 43.9166 195.55 46.8416 198.075 55.0314C199.315 58.9913 200.601 63.4461 199.958 67.631C199.315 71.7259 194.126 76.2708 194.126 80.0057Z" fill="white"/>
<path d="M211.484 34.9618C207.03 34.1518 207.994 31.7219 207.994 31.7219C207.994 31.7219 208.178 30.3719 208.27 28.617C208.27 28.167 208.315 27.717 208.315 27.222C208.315 26.502 208.27 25.782 208.178 25.062C207.81 22.1371 216.26 23.8921 216.26 23.8921C216.26 23.8921 215.755 29.8319 216.949 31.5869C218.097 33.3868 215.938 35.8168 211.484 34.9618Z" fill="#FFE3CA"/>
<path d="M202.989 31.7219C202.989 31.7219 211.989 41.8917 215.295 44.2316C215.295 44.2316 219.107 40.8567 216.765 31.9469C216.765 31.9469 212.448 29.787 202.989 31.7219Z" fill="#FFE3CA"/>
<path d="M203.264 7.24246C203.264 7.24246 198.58 16.0622 203.218 24.387C207.856 32.7118 216.949 20.7421 217.5 19.3472C218.097 17.9522 221.219 9.9874 215.02 7.60245C208.821 5.17251 204.596 4.85752 203.264 7.24246Z" fill="#FFE3CA"/>
<path d="M212.265 25.287C212.265 25.287 211.438 27.042 208.27 28.617C208.27 28.167 208.316 27.717 208.316 27.222C208.316 27.222 210.474 26.997 212.265 25.287Z" fill="#FCD2B1"/>
<path d="M165.104 72.0859C165.104 72.0859 162.9 73.0309 161.844 72.6259C160.788 72.1759 159.181 72.0859 158.676 72.0859C157.987 72.0859 155.829 71.321 155.875 72.1759C155.92 72.9859 159.364 73.5709 160.053 73.8409C160.742 74.1109 157.941 75.5958 157.665 76.2708C157.39 76.9458 160.604 81.3557 162.395 80.0957C164.186 78.8358 165.15 76.3158 165.518 76.1358C165.885 75.9558 166.849 75.2809 166.849 75.2809L165.104 72.0859Z" fill="#FFE3CA"/>
<path d="M158.033 75.8658C158.033 75.8658 152.844 80.0957 152.752 80.6807C152.66 81.2657 152.936 81.5357 153.441 81.1307C153.946 80.7707 158.584 77.1708 158.584 77.1708C158.584 77.1708 153.395 83.2007 153.211 83.6507C153.119 83.9206 153.625 84.4606 153.9 84.2806C154.176 84.1006 159.732 78.4308 159.732 78.4308C159.732 78.4308 154.864 84.0556 154.864 84.5056C154.819 84.8656 155.415 85.2706 155.829 84.8656C156.242 84.4606 161.064 79.5108 161.064 79.5108C161.064 79.5108 157.803 83.8306 158.033 84.2356C158.171 84.4606 158.584 84.9556 159.365 83.8306C160.145 82.7057 162.349 80.1857 162.349 80.1857L158.033 75.8658Z" fill="#FFE3CA"/>
<path d="M220.301 102.235H205.01C205.01 102.235 190.912 103.36 189.764 93.6404C188.616 83.9656 194.402 78.5657 194.402 78.5657C194.402 78.5657 201.841 80.5007 208.362 82.0306C211.622 81.3557 215.525 80.9057 220.117 81.0407C220.117 81.0407 247.67 89.9505 246.843 94.6753C246.843 94.7203 235.317 88.6905 220.301 102.235Z" fill="#0B4870"/>
<path d="M210.336 85.4956L239.541 85.0456L224.801 92.3804L210.336 85.4956Z" fill="#F2F2F2"/>
<path d="M219.428 81.8056C219.428 81.8056 212.862 84.2806 204.826 82.0306L204.458 79.1057L221.035 80.0057L219.428 81.8056Z" fill="white"/>
<path d="M224.801 92.3804L210.336 86.8906V85.4956L225.949 90.9855L224.801 92.3804Z" fill="#D3D3D3"/>
<path d="M219.291 83.2006C219.199 84.2356 220.301 85.0006 221.311 84.5956L223.01 83.8756C223.515 83.6506 223.837 83.1556 223.745 82.6156C223.056 78.2957 221.541 61.4662 223.745 58.5412C224.572 57.4613 225.077 56.5163 225.352 55.7063C226.822 59.3962 228.613 64.1661 229.347 66.731L243.123 84.7306L247.761 85.9006C241.975 72.2659 237.337 65.0661 237.337 65.0661C236.419 62.6811 233.848 55.4813 231.551 49.0915C230.082 45.0416 228.796 41.3067 228.062 39.3267C227.694 38.2917 227.005 37.4367 226.041 36.8968C223.883 35.6368 220.347 33.6568 217.132 32.1269H217.087C216.995 32.0819 216.903 32.0369 216.765 31.9919C222.918 41.0367 220.531 66.731 219.291 83.2006C219.291 83.1556 219.291 83.1556 219.291 83.2006Z" fill="#FDB32A"/>
<path d="M196.514 32.7119C194.54 33.0269 189.672 37.6618 187.101 42.3416C184.162 47.6965 181.131 53.7714 178.881 55.7513C174.748 59.4412 163.13 72.4459 162.579 72.1309C162.35 71.9959 165.748 76.0008 166.207 76.1808C166.437 76.2708 185.264 60.2512 187.101 57.8213C188.8 55.5263 193.392 45.8066 194.769 46.0316C194.861 46.2565 196.56 49.8115 198.122 54.9863C198.168 55.0763 198.168 55.1663 198.213 55.2563C199.316 58.8562 199.224 62.8161 198.627 67.226C198.168 70.556 195.642 76.0008 194.127 78.6558C193.943 78.9707 193.989 79.6007 194.172 80.0507C194.31 80.3207 194.448 80.5457 194.678 80.6357L200.234 82.6607L201.52 83.1106C202.438 83.4706 203.448 83.2906 204.183 82.7507C204.78 82.3457 205.239 81.6707 205.331 80.8607C206.571 71.5909 208.132 62.0962 209.372 58.5412C214.837 42.8816 207.26 31.0919 207.26 31.0919C207.26 31.0919 198.259 32.0819 196.514 32.7119Z" fill="#FDB32A"/>
<path d="M224.801 92.3804L233.48 69.161L261.445 69.611L253.18 91.0305L224.801 92.3804Z" fill="#CEDCF3"/>
<path d="M242.435 79.4207C241.562 81.0856 241.838 82.9306 243.031 83.4706C244.225 84.0556 245.833 83.1556 246.705 81.4906C247.578 79.8257 247.302 77.9807 246.108 77.4407C244.914 76.8558 243.261 77.7557 242.435 79.4207Z" fill="#F2F0F0"/>
<path d="M225.444 35.5468C223.377 32.4869 221.908 30.057 221.724 25.6921C221.586 22.8121 220.944 18.8972 218.923 16.9623C221.035 11.5624 218.556 9.94246 217.545 8.1875C216.306 5.98256 207.122 0.672688 203.494 6.25255C199.866 11.7874 201.152 17.5923 201.152 17.5923C201.519 14.5323 204.734 10.3924 204.734 10.3924C205.239 13.5874 211.989 18.8072 214.928 20.9222C214.882 20.9672 214.836 21.0572 214.836 21.1022C213.183 23.4421 215.249 25.7821 215.617 28.257C215.984 30.732 208.683 37.3918 216.811 40.7217C224.939 44.0966 227.51 38.5618 225.444 35.5468Z" fill="#0B4870"/>
<path d="M77.626 297.665C77.626 297.665 77.4423 299.555 68.4419 299.555C59.4415 299.555 46.3542 297.26 46.3542 297.26L67.248 295.28C67.248 295.28 75.2841 294.875 77.626 297.665Z" fill="#0E538C"/>
<path d="M54.7119 298.34C49.6148 298.34 47.4565 300.905 45.436 301.715C43.4155 302.525 41.395 303.74 41.395 303.695C42.543 301.49 44.1502 301.445 44.9768 300.725C45.8034 300.005 45.5738 300.365 43.7829 300.23C42.7726 300.14 40.9358 301.985 39.65 303.02C38.502 303.875 37.8132 303.965 37.8132 303.965C37.8132 303.965 39.1449 302.12 40.7981 300.635C42.8186 298.835 45.3442 297.35 45.9411 297.08C47.0432 296.63 50.4413 296.54 52.8292 296.855C55.5844 297.215 58.3856 298.34 54.7119 298.34Z" fill="#0E538C"/>
<path d="M46.2627 297.17C46.2627 297.17 42.3594 298.16 41.6706 298.7C41.2114 299.06 39.1909 301.175 39.1909 301.175C39.1909 301.175 40.6604 300.95 41.4869 300.14C42.3594 299.285 46.2627 297.17 46.2627 297.17Z" fill="#0E538C"/>
<path d="M70.233 293.795C70.233 293.795 80.06 294.425 79.3712 300.365C79.0038 303.74 76.7537 304.91 73.7689 304.64C68.2585 304.19 62.0133 303.38 62.0133 303.38L59.2122 294.155L70.233 293.795Z" fill="#0E538C"/>
<path d="M72.2993 294.605L81.9426 264.141C81.9426 264.141 83.3661 259.686 85.7081 260.496C89.0603 261.711 87.4071 265.356 87.1316 267.516C86.5346 271.926 86.9479 273.861 83.8253 284.481C81.8967 291.051 80.2436 298.61 78.5904 302.93C77.4424 305.9 75.4678 301.625 72.483 300.455C66.8807 298.25 72.2993 294.605 72.2993 294.605Z" fill="#0E538C"/>
<path d="M73.0343 247.582C74.9171 252.891 80.749 255.636 86.1216 253.701C91.4484 251.766 94.2955 245.872 92.4127 240.562C90.53 235.252 84.6981 232.507 79.3254 234.442C73.9987 236.377 71.1516 242.272 73.0343 247.582Z" fill="#0E538C"/>
<path d="M62.4728 248.077C65.4117 252.396 71.2896 253.476 75.5601 250.507L74.9632 245.422C79.2338 242.407 80.2899 236.467 77.351 232.147L75.3305 229.222C72.3916 224.902 66.5138 223.822 62.2432 226.792L60.3146 228.142C56.044 231.157 54.9878 237.097 57.9267 241.417L62.4728 248.077Z" fill="#0B4870"/>
<path d="M58.6151 233.902C59.1203 234.622 59.6713 235.297 60.3142 235.972C64.5389 240.472 70.1871 242.182 73.7689 240.337C75.422 242.542 77.3047 244.297 79.0038 245.647C80.9784 247.222 86.0296 247.852 86.0296 247.852C88.9685 251.001 77.9476 269.406 77.167 269.316C75.5598 269.181 73.4933 259.011 75.0087 255.321C75.6975 253.656 76.7996 251.676 76.4782 250.777C75.3302 247.672 73.7229 248.212 73.7229 248.212C73.7229 248.212 71.6106 250.642 69.9575 250.552C68.2584 250.417 65.3195 247.807 65.1818 247.762C64.6766 247.357 64.2174 246.862 63.8041 246.277L59.3958 239.797C58.2478 237.997 57.9723 235.837 58.6151 233.902Z" fill="#FFE3CA"/>
<path d="M92.3208 311.435C92.3208 311.435 88.739 315.665 87.6369 316.115C86.1675 316.745 81.6673 315.395 81.6673 315.395C81.6673 315.395 80.4733 296 79.0957 288.441C77.7181 280.881 75.6976 278.901 75.6058 276.516C75.468 272.691 72.2077 271.161 72.7587 268.191C73.3098 265.221 74.2741 254.601 74.5955 255.996C77.3967 268.056 80.8407 258.021 81.6213 256.446C82.0346 255.591 92.3208 311.435 92.3208 311.435Z" fill="#F2F0F0"/>
<path d="M76.0192 252.396C76.0192 252.396 71.6567 257.076 71.9782 258.921C72.2537 260.766 70.0955 266.526 72.2537 274.536C74.6875 283.671 75.9733 289.881 76.4325 295.865C76.8917 301.85 74.8252 307.34 75.6518 314.675C76.2947 320.435 77.6264 320.75 77.6264 320.75C77.6264 320.75 80.2439 321.38 82.0807 319.13C83.9175 316.925 81.1623 297.305 80.2438 292.445C79.3254 287.541 76.3865 276.111 75.6059 272.736C74.6416 268.596 74.8252 264.366 74.8712 263.151C75.1008 258.876 75.6518 256.221 76.111 254.601C76.1569 254.376 76.3865 251.856 76.0192 252.396Z" fill="#0E538C"/>
<path d="M83.6419 257.886C86.0298 264.636 93.4689 268.101 100.265 265.626C107.061 263.151 110.643 255.681 108.255 248.932C105.867 242.182 98.4283 238.717 91.6321 241.192C84.8359 243.622 81.2541 251.136 83.6419 257.886Z" fill="#0E538C"/>
<path d="M60.2684 373.893L62.7022 392.928L52.1405 397.833L46.3086 399.093L56.6866 391.218L53.2885 374.028L60.2684 373.893Z" fill="#FCBAA2"/>
<path d="M63.3909 395.808L61.0949 396.393L59.5336 394.998L51.0842 399.138L43.5992 400.893C43.5992 400.893 43.5074 400.308 43.737 399.993C44.6554 398.778 49.9362 396.123 49.9362 396.123C49.9362 396.123 50.028 397.878 50.7628 397.923C51.4975 397.968 57.9723 394.638 59.4876 393.738C62.0592 392.163 62.5643 391.128 62.748 391.263C63.299 391.533 63.3909 395.808 63.3909 395.808Z" fill="#0E538C"/>
<path d="M34.7826 347.434L26.3791 363.634L14.8072 363.094L9.02124 361.429L21.833 359.314L28.8129 345.454L34.7826 347.434Z" fill="#FCBAA2"/>
<path d="M25.6903 366.514L23.3943 365.974L22.6595 363.994L12.2356 363.859L6.03638 362.419C6.03638 362.419 6.7711 361.609 7.23031 361.384C8.60792 360.799 13.5214 360.529 13.5214 360.529C13.5214 360.529 13.0163 361.924 13.6592 362.284C14.302 362.689 21.4656 362.914 23.2106 362.779C26.2413 362.554 27.1138 361.924 27.2057 362.104C27.5271 362.734 25.6903 366.514 25.6903 366.514Z" fill="#0E538C"/>
<path d="M96.0865 298.97L89.8413 301.715L89.8872 310.13L46.8598 303.245C46.8598 303.245 42.7729 301.94 40.1555 308.555C36.4359 317.915 26.9763 347.029 26.9763 347.029L32.946 353.374L51.7274 320.48C51.7274 320.48 90.2087 338.794 102.883 334.834C107.75 333.304 111.47 324.575 110.781 315.755C110.23 308.825 108.852 302.48 108.852 302.48L96.0865 298.97Z" fill="#FDB32A"/>
<path d="M90.6218 334.654L59.8092 332.405L62.4726 380.643L53.3804 380.958L46.676 324.44C46.676 324.44 48.4669 316.025 54.3447 317.285C60.2685 318.59 74.5038 329.66 90.6218 334.654Z" fill="#FDB32A"/>
<path d="M111.378 346.759C111.378 346.759 95.2137 328.985 91.0349 318.95C86.0296 306.935 86.4429 291.861 85.5245 286.866C83.8254 277.686 81.759 259.866 81.3917 257.661C80.9784 255.456 82.4019 252.981 82.4019 252.981C82.4019 252.981 81.3457 246.322 84.3765 247.042C88.7389 248.077 93.0554 250.417 94.5708 251.137C97.4179 252.396 103.25 285.966 103.571 287.586C104.765 293.435 109.128 298.745 112.25 304.19C119.597 317.105 121.48 332.36 121.48 332.36C121.48 332.36 120.562 343.519 111.378 346.759Z" fill="#0B4870"/>
<path d="M94.7087 300.275C94.7087 300.275 94.571 302.435 84.2848 301.94C73.9986 301.4 58.9368 298.025 58.9368 298.025L82.7694 296.945C82.7694 296.945 91.9076 296.99 94.7087 300.275Z" fill="#FFE3CA"/>
<path d="M67.0188 299.195C62.1053 299.105 59.993 301.58 58.0643 302.345C56.1356 303.11 54.1611 304.235 54.1611 304.235C55.2632 302.12 56.8244 302.075 57.651 301.4C58.4317 300.725 58.248 301.085 56.503 300.905C55.4928 300.815 53.7478 302.57 52.5079 303.56C51.4058 304.415 50.717 304.46 50.717 304.46C50.717 304.46 52.0028 302.66 53.61 301.22C55.5846 299.51 57.9725 298.07 58.5694 297.845C59.6256 297.44 62.8859 297.395 65.2279 297.755C67.8453 298.115 70.5546 299.285 67.0188 299.195Z" fill="#FFE3CA"/>
<path d="M58.7991 297.89C58.7991 297.89 55.0337 298.79 54.3908 299.285C53.9316 299.645 52.0029 301.67 52.0029 301.67C52.0029 301.67 53.3805 301.445 54.2071 300.68C55.0337 299.96 58.7991 297.89 58.7991 297.89Z" fill="#FFE3CA"/>
<path d="M86.4888 297.89L101.734 290.016C101.734 290.016 101.78 299.555 101.872 303.2C101.964 306.845 103.525 311.975 100.586 312.74C97.6474 313.505 96.132 313.1 99.1628 314.855C102.194 316.565 101.505 318.365 100.357 319.85C99.2087 321.335 104.214 336.454 103.02 337.309C98.2903 331.46 93.1931 324.215 90.989 318.95C88.1878 312.11 87.0857 304.28 86.4888 297.89Z" fill="#0B4870"/>
<path d="M91.4023 294.065L90.8053 263.646C90.8053 263.646 90.8512 254.151 91.0349 251.362C91.2186 248.482 96.2239 251.856 96.2239 251.856C96.2239 251.856 103.25 261.171 103.387 283.626C103.479 298.655 102.653 306.485 95.581 305.855C89.0144 305.27 81.5294 304.28 81.5294 304.28L78.269 295.955L91.4023 294.065Z" fill="#0B4870"/>
<path d="M89.841 310.13L37.354 303.695L37.4918 302.615L89.9787 309.05L89.841 310.13Z" fill="#CEDCF3"/>
<path d="M66.835 306.17C66.7432 307.025 66.0544 307.655 65.3197 307.565L38.4103 304.28C37.6756 304.19 36.7572 303.515 36.1143 301.265L25.7363 274.941C25.8741 273.861 26.7466 273.321 27.4813 273.591L54.9876 277.821C55.7223 278.091 56.2274 278.721 56.503 279.891L66.835 306.17Z" fill="#CEDCF3"/>
<path d="M63.4371 306.89L63.7127 306.935L89.9791 310.175C88.9689 310.58 87.3616 310.715 85.5708 310.49L63.5749 307.79L63.2994 307.745L41.3035 305.045C39.5126 304.82 37.9973 304.28 37.0789 303.695L63.4371 306.89Z" fill="#CEDCF3"/>
<path d="M91.4025 294.065L90.8055 263.646C90.8055 263.646 91.2648 261.081 92.1832 258.786C92.4128 262.116 93.9741 286.101 94.1577 289.251C94.3873 292.67 97.2344 293.03 97.8314 294.155C98.4742 295.235 97.9232 295.46 95.8109 295.055C93.7444 294.605 94.4792 294.965 94.9384 296.045C95.3976 297.17 94.2496 296.855 90.2086 295.415C87.2697 294.38 81.6215 295.415 78.7744 296.045L91.4025 294.065Z" fill="#0B4870"/>
<path d="M272.88 219.412C267.828 220.717 258.506 225.307 256.532 233.182C253.593 245.017 259.471 262.341 250.195 279.351C247.21 284.751 301.488 292.04 301.488 292.04L311.958 232.282C311.958 232.282 298.87 219.322 296.207 218.422C290.651 216.622 282.982 216.802 272.88 219.412Z" fill="#FDB32A"/>
<path d="M312.004 232.327C313.887 237.097 318.662 265.491 313.336 272.196C312.739 272.961 316.091 274.176 315.494 277.686C315.402 278.271 314.392 281.106 314.392 281.106L310.075 282.231L300.662 271.566C300.662 271.566 304.473 265.761 309.478 243.757C310.948 237.277 311.591 231.247 312.004 232.327Z" fill="#EFAE35"/>
<path d="M276.37 266.256C276.37 266.256 280.916 278.001 291.891 281.151C293.773 281.691 294.967 283.761 294.049 284.436C292.855 285.291 291.294 285.471 288.539 285.471C282.798 285.471 274.992 283.671 269.619 278.361C261.629 270.531 259.104 266.931 259.93 263.016C260.665 259.011 276.37 266.256 276.37 266.256Z" fill="#FCD2B1"/>
<path d="M258.093 229.222C255.752 233.092 254.42 239.302 254.466 248.212C254.466 255.096 260.344 266.391 261.216 269.856C261.354 270.441 261.721 272.916 261.721 272.916L268.196 279.396L281.191 270.441L277.242 264.276L276.048 264.411C276.048 264.411 275.314 260.991 275.497 259.686C275.681 258.381 271.915 240.607 270.033 229.222C268.977 222.607 260.389 225.397 258.093 229.222Z" fill="#EFAE35"/>
<path d="M269.757 264.141L273.568 262.971L275.13 262.566C275.222 263.646 276.14 264.366 276.14 264.366L273.155 264.726L269.711 265.806L265.67 268.641L269.757 264.141Z" fill="#0E538C"/>
<path d="M291.064 281.106L297.676 279.261C297.676 279.261 299.559 281.826 299.192 282.456C298.824 283.086 299.192 286.866 299.192 286.866L295.977 289.655L293.36 288.756C293.36 288.756 293.176 287.586 294.049 287.496C294.967 287.361 293.452 286.731 292.993 286.461C292.533 286.146 288.722 284.166 291.064 281.106Z" fill="#FCD2B1"/>
<path d="M280.87 218.827C280.135 220.942 281.237 223.327 283.35 224.047L287.115 225.397C289.227 226.162 291.523 224.992 292.258 222.877L295.61 213.157C296.345 211.043 295.243 208.658 293.131 207.893L289.365 206.543C287.253 205.778 284.957 206.948 284.222 209.063L280.87 218.827Z" fill="#FF957E"/>
<path d="M297.309 227.377C296.942 228.772 295.472 229.627 294.095 229.222L282.752 226.027C281.375 225.622 280.548 224.182 280.916 222.742L285.554 205.688C285.921 204.293 287.39 203.438 288.768 203.843L300.11 206.993C301.488 207.398 302.315 208.838 301.947 210.278L297.309 227.377Z" fill="#FCD2B1"/>
<path d="M303.187 208.567C303.279 208.477 302.131 207.218 302.728 204.743C303.509 201.413 300.983 200.063 299.1 200.018C297.998 199.973 294.279 201.728 292.304 202.313C290.33 202.898 290.513 202.133 286.931 201.503C284.544 201.053 283.993 202.358 283.166 204.158C282.339 206.003 282.248 213.022 282.248 213.022C282.569 213.472 283.074 213.832 283.396 213.472C283.717 213.112 285.003 207.488 286.059 205.823C287.069 204.158 291.202 206.813 293.452 208.117C295.656 209.422 297.631 209.647 301.167 208.927C301.58 209.377 301.947 209.872 301.947 210.097C301.947 210.547 300.937 213.742 300.937 213.742C300.937 213.742 302.912 212.527 303.463 211.582C303.738 211.267 303.83 209.737 303.187 208.567Z" fill="#0B4870"/>
<path d="M284.497 219.187C284.36 219.637 283.901 219.952 283.441 219.817L281.008 219.142C280.548 219.007 280.273 218.512 280.411 218.062L281.65 213.517C281.788 213.067 282.247 212.752 282.707 212.887L285.14 213.562C285.6 213.697 285.875 214.192 285.737 214.642L284.497 219.187Z" fill="#FCD2B1"/>
<path d="M282.982 214.867C282.982 214.867 281.145 221.572 280.548 223.822C279.997 225.847 279.584 230.527 290.834 233.677C297.493 235.522 298.595 230.482 299.054 228.862C299.376 227.602 299.008 223.507 298.503 222.607C298.503 222.562 297.768 225.397 297.768 225.397C297.768 225.397 297.125 222.292 293.957 221.437C288.86 219.997 286.839 222.742 284.635 222.022C282.89 221.437 282.385 218.197 282.982 214.867Z" fill="#0B4870"/>
<path d="M290.651 225.172L294.141 226.162C294.6 226.297 295.105 226.027 295.197 225.532L295.335 225.037L290.146 223.597L290.008 224.092C289.916 224.587 290.192 225.037 290.651 225.172Z" fill="#FCD2B1"/>
<path d="M345.985 293.345C344.378 297.89 316.091 314.585 306.585 313.595L277.977 314.99C253.685 311.975 242.159 273.636 242.159 273.636C243.123 264.006 267.094 277.956 275.635 282.276C289.135 289.115 297.723 289.475 297.723 289.475C306.769 290.42 317.239 283.311 328.673 283.086C341.209 282.771 348.556 286.191 345.985 293.345Z" fill="#0B4870"/>
<path d="M283.809 288.756C283.809 288.711 283.809 288.711 283.809 288.756V287.496L332.989 286.596V287.811V287.856L332.852 288.081C332.255 289.161 331.107 289.341 329.821 289.386L287.023 290.196C285.737 290.241 284.589 290.061 283.946 289.026L283.809 288.756Z" fill="#CEDCF3"/>
<path d="M295.656 288.711C295.656 288.711 295.656 288.756 295.656 288.711L295.518 288.936C295.334 289.206 295.105 289.431 294.829 289.566L287.344 289.701C286.104 289.746 285.002 289.611 284.359 288.756L284.222 288.576C284.222 288.576 284.222 288.576 284.176 288.531V287.946L295.564 287.721L295.656 288.711Z" fill="#CEDCF3"/>
<path d="M302.314 288.261L326.882 287.811V286.956L302.269 287.451L302.314 288.261Z" fill="#CEDCF3"/>
<path d="M295.932 287.226L301.855 262.566C301.993 261.936 302.636 261.396 303.279 261.351L337.811 260.721C338.454 260.721 338.821 261.216 338.683 261.891L332.76 286.551L295.932 287.226Z" fill="#CEDCF3"/>
<path d="M273.66 321.335C277.058 321.92 279.676 317.915 279.676 317.915L288.492 310.895L286.61 306.125L269.436 313.955C269.436 313.955 270.216 320.75 273.66 321.335Z" fill="#FCD2B1"/>
<path d="M279.63 317.645C279.63 317.645 279.63 318.05 278.987 319.895C278.344 321.74 277.518 322.37 276.691 322.64C273.385 323.63 271.043 323.135 263.145 324.665C255.246 326.195 252.859 325.025 250.562 321.335C248.266 317.645 250.654 314.72 254.512 314.45C260.068 314.045 263.191 314.675 266.084 314.225C269.114 313.775 269.298 313.055 271.089 311.93C272.742 310.895 274.303 317.105 272.742 318.545C271.318 319.805 278.482 319.985 279.63 317.645Z" fill="#FFB750"/>
<path d="M277.977 321.2C274.717 322.19 272.329 321.695 264.43 323.225C256.532 324.755 254.144 323.585 251.848 319.895C250.792 318.185 250.746 316.655 251.343 315.485C249.598 316.7 249.001 318.815 250.562 321.335C252.858 325.025 255.246 326.195 263.145 324.665C271.043 323.135 273.431 323.63 276.691 322.64C277.334 322.46 277.977 322.01 278.528 320.975C278.344 321.065 278.161 321.155 277.977 321.2Z" fill="white"/>
<path d="M279.63 317.78C279.63 317.69 279.63 317.69 279.63 317.69C279.63 317.735 279.584 317.78 279.538 317.825C279.584 317.78 279.63 317.78 279.63 317.78Z" fill="#E9D6B8"/>
<path d="M262.594 320.525C262.364 320.615 262.134 320.12 262.043 319.445C261.905 318.05 261.583 316.7 261.124 315.305C260.895 314.63 260.895 314.045 261.17 313.955C261.446 313.865 261.905 314.36 262.088 315.035C262.548 316.385 262.823 317.78 262.961 319.13C263.053 319.805 262.823 320.435 262.594 320.525Z" fill="white"/>
<path d="M265.027 320.075C264.752 320.12 264.522 319.67 264.43 319.04C264.293 317.735 263.971 316.43 263.512 315.17C263.282 314.54 263.282 314 263.604 313.955C263.879 313.91 264.339 314.405 264.568 315.035C264.981 316.295 265.303 317.6 265.441 318.86C265.487 319.49 265.303 320.03 265.027 320.075Z" fill="white"/>
<path d="M267.599 319.985C267.324 320.03 267.048 319.535 266.956 318.86C266.727 317.51 266.405 316.205 265.9 314.855C265.67 314.18 265.67 313.64 265.946 313.64C266.267 313.64 266.727 314.135 266.956 314.81C267.461 316.115 267.783 317.465 267.966 318.77C268.058 319.4 267.875 319.94 267.599 319.985Z" fill="white"/>
<path d="M274.257 309.86C274.257 309.86 334.734 284.616 338.178 284.571C349.842 284.481 347.179 296.45 341.255 302.12C334.275 308.78 281.191 320.975 281.191 320.975L274.257 309.86Z" fill="#0B4870"/>
<path d="M298.228 314.27L281.696 298.34L288.768 291.276L306.769 310.535L298.228 314.27Z" fill="#FCD2B1"/>
<path d="M301.626 301.76C301.626 301.76 259.609 262.656 256.808 261.486C247.21 257.526 241.286 268.281 241.608 272.016C242.067 276.831 284.727 315.98 284.727 315.98L301.626 301.76Z" fill="#0B4870"/>
<path d="M326.515 315.485C327.479 316.385 327.663 319.13 327.663 319.13C327.663 319.13 313.657 324.53 308.744 324.62C307.458 324.665 305.162 324.125 302.958 323.495C302.59 323.405 301.718 322.415 301.35 322.325C300.662 322.145 300.524 322.775 299.973 322.595C298.503 322.1 297.401 321.695 297.355 321.605C294.37 315.215 295.381 312.065 295.381 312.065C295.381 312.065 301.81 313.955 300.707 312.47C298.366 309.32 305.116 306.125 306.585 307.79C312.647 314.495 323.668 312.83 326.515 315.485Z" fill="#FFB750"/>
<path d="M327.295 316.835C322.979 318.59 313.932 322.145 312.141 322.28C304.748 322.82 299.605 320.165 296.161 318.59C296.483 319.49 296.85 320.525 297.355 321.605C297.401 321.695 298.457 322.1 299.973 322.595C300.569 322.775 300.707 322.1 301.35 322.325C301.717 322.415 302.544 323.405 302.957 323.495C305.162 324.125 307.458 324.62 308.743 324.62C313.657 324.53 327.662 319.13 327.662 319.13C327.662 319.13 327.662 317.87 327.295 316.835Z" fill="white"/>
<path d="M317.422 312.695C317.56 312.965 317.009 313.235 316.228 313.415C314.621 313.73 313.06 314.225 311.499 314.855C310.718 315.17 310.029 315.26 309.937 314.99C309.845 314.72 310.351 314.225 311.131 313.91C312.647 313.28 314.254 312.83 315.815 312.515C316.55 312.29 317.285 312.425 317.422 312.695Z" fill="white"/>
<path d="M314.254 311.57C314.392 311.84 313.84 312.2 313.06 312.425C311.499 312.875 309.983 313.505 308.468 314.27C307.733 314.63 307.044 314.765 306.952 314.495C306.861 314.225 307.366 313.64 308.1 313.28C309.57 312.56 311.085 311.93 312.647 311.525C313.427 311.21 314.162 311.3 314.254 311.57Z" fill="white"/>
<path d="M311.223 310.58C311.315 310.85 310.81 311.255 310.075 311.525C308.56 312.11 307.09 312.83 305.667 313.685C304.978 314.135 304.335 314.27 304.243 313.955C304.151 313.685 304.61 313.055 305.345 312.605C306.769 311.75 308.238 311.03 309.708 310.49C310.442 310.265 311.131 310.31 311.223 310.58Z" fill="white"/>
</svg>
